<svg width="464" height="291" viewBox="0 0 464 291" fill="none" xmlns="http://www.w3.org/2000/svg">
<path d="M225.592 237.728H167.97V182.754H170.555V235.143H225.592V237.728Z" fill="white"/>
<path d="M169.263 227.412H161.817V229.997H169.263V227.412Z" fill="white"/>
<path d="M169.263 218.133H161.817V220.718H169.263V218.133Z" fill="white"/>
<path d="M169.263 208.855H161.817V211.44H169.263V208.855Z" fill="white"/>
<path d="M169.263 199.576H161.817V202.161H169.263V199.576Z" fill="white"/>
<path d="M169.263 190.301H161.817V192.886H169.263V190.301Z" fill="white"/>
<path d="M187.123 237.728H174.817V206.203H187.123V237.728ZM177.402 235.143H184.538V208.788H177.402V235.143Z" fill="white"/>
<path d="M203.69 237.728H191.384V214.6H203.69V237.728ZM193.973 235.143H201.109V217.185H193.973V235.143Z" fill="white"/>
<path d="M220.258 237.728H207.952V196.486H220.258V237.728ZM210.541 235.143H217.677V199.071H210.541V235.143Z" fill="white"/>
<path d="M196.523 204.025L189.496 192.788L175.526 201.19L174.194 198.973L190.338 189.263L196.848 199.674L214.254 179.339L216.22 181.019L196.523 204.025Z" fill="white"/>
<path d="M216.466 186.87L215.174 186.925L214.915 180.557L208.586 181.281L208.437 179.997L216.149 179.115L216.466 186.87Z" fill="white"/>
<path d="M107.141 179.664C99.3464 179.664 91.5718 178.645 84.0362 176.632L83.1001 176.382L105.719 91.856L23.7352 122.445L23.3944 121.536C19.6618 111.533 17.7662 101.021 17.7662 90.2893C17.7662 41.0098 57.8611 0.914917 107.141 0.914917C130.919 0.914917 153.302 10.1504 170.16 26.9177C187.013 43.6771 196.37 65.9942 196.507 89.7567L196.511 90.7319H154.407C144.701 90.7319 136.809 98.6279 136.809 108.33V174.619L136.155 174.842C126.83 178.042 117.069 179.664 107.141 179.664ZM85.4736 175.003C92.5549 176.808 99.8399 177.725 107.141 177.725C116.623 177.725 125.948 176.213 134.871 173.233V108.33C134.871 97.5548 143.636 88.7932 154.407 88.7932H194.557C193.754 41.3153 154.744 2.85367 107.137 2.85367C58.9225 2.85367 19.701 42.0791 19.701 90.2893C19.701 100.465 21.44 110.437 24.871 119.95L108.558 88.7266L85.4736 175.003Z" fill="white"/>
<path d="M62.048 201.436L61.1119 201.186C33.2409 193.744 10.5712 173.15 0.470164 146.09L0.133331 145.185L85.642 113.28L62.048 201.436ZM2.63216 146.321C12.5609 172.046 34.1535 191.66 60.6772 199.059L82.7946 116.41L2.63216 146.321Z" fill="white"/>
<path d="M411.626 261.091H134.546V108.33C134.546 97.3785 143.456 88.4681 154.407 88.4681H391.769C402.72 88.4681 411.63 97.3785 411.63 108.33V261.091H411.626ZM137.131 258.506H409.045V108.33C409.045 98.8042 401.294 91.0531 391.769 91.0531H154.407C144.882 91.0531 137.131 98.8042 137.131 108.33V258.506Z" fill="white"/>
<path d="M431.636 290.936H114.535C104.873 290.936 97.0121 283.075 97.0121 273.413V264.154C97.0121 261.04 99.5462 258.506 102.66 258.506H443.516C446.629 258.506 449.164 261.04 449.164 264.154V273.413C449.16 283.075 441.299 290.936 431.636 290.936ZM102.66 261.091C100.972 261.091 99.5971 262.466 99.5971 264.154V273.413C99.5971 281.65 106.298 288.351 114.535 288.351H431.64C439.877 288.351 446.579 281.65 446.579 273.413V264.154C446.579 262.466 445.204 261.091 443.516 261.091H102.66Z" fill="white"/>
<path d="M401.678 252.11H143.589V111.079C143.589 104.135 149.241 98.483 156.185 98.483H389.086C396.03 98.483 401.682 104.135 401.682 111.079V252.11H401.678ZM146.174 249.525H399.093V111.079C399.093 105.56 394.6 101.068 389.082 101.068H156.185C150.667 101.068 146.174 105.56 146.174 111.079V249.525Z" fill="white"/>
<path d="M231.409 243.885H156.307V111.729H231.409V243.885ZM157.599 242.593H230.116V113.022H157.599V242.593Z" fill="white"/>
<path d="M390.022 243.885H235.932V111.729H390.022V243.885ZM237.225 242.593H388.729V113.022H237.225V242.593Z" fill="white"/>
<path d="M261.352 151.765H246.409V136.823H261.352V151.765ZM247.702 150.473H260.059V138.116H247.702V150.473Z" fill="white"/>
<path d="M374.426 138.147H268.734V140.959H374.426V138.147Z" fill="white"/>
<path d="M308.947 123.93H246.12V126.742H308.947V123.93Z" fill="white"/>
<path d="M374.426 147.379H268.734V150.191H374.426V147.379Z" fill="white"/>
<path d="M223.007 123.93H193.656V126.742H223.007V123.93Z" fill="white"/>
<path d="M223.007 133.165H193.656V135.977H223.007V133.165Z" fill="white"/>
<path d="M223.011 147.379H162.272V150.191H223.011V147.379Z" fill="white"/>
<path d="M223.011 160.95H162.272V163.762H223.011V160.95Z" fill="white"/>
<path d="M256.084 150.148L249.116 145.358L250.581 143.231L255.296 146.47L263.615 132.785L265.824 134.125L256.084 150.148Z" fill="white"/>
<path d="M261.352 176.867H246.409V161.925H261.352V176.867ZM247.702 175.575H260.059V163.218H247.702V175.575Z" fill="white"/>
<path d="M374.426 163.249H268.734V166.061H374.426V163.249Z" fill="white"/>
<path d="M374.426 172.481H268.734V175.293H374.426V172.481Z" fill="white"/>
<path d="M256.084 175.25L249.116 170.46L250.581 168.333L255.296 171.572L263.615 157.887L265.824 159.227L256.084 175.25Z" fill="white"/>
<path d="M261.352 201.969H246.409V187.027H261.352V201.969ZM247.702 200.677H260.059V188.32H247.702V200.677Z" fill="white"/>
<path d="M374.426 188.351H268.734V191.163H374.426V188.351Z" fill="white"/>
<path d="M374.426 197.583H268.734V200.395H374.426V197.583Z" fill="white"/>
<path d="M256.084 200.352L249.116 195.562L250.581 193.435L255.296 196.674L263.615 182.989L265.824 184.329L256.084 200.352Z" fill="white"/>
<path d="M434.3 60.6832H431.715V98.5417H434.3V60.6832Z" fill="white"/>
<path d="M422.436 89.9759L424.332 88.2134L433.003 97.5508L441.683 88.2134L443.574 89.9759L433.003 101.346L422.436 89.9759Z" fill="white"/>
<path d="M454.33 63.4875H451.745V101.346H454.33V63.4875Z" fill="white"/>
<path d="M463.608 72.0494L461.716 73.8119L453.041 64.4785L444.362 73.8119L442.47 72.0494L453.041 60.6832L463.608 72.0494Z" fill="white"/>
<path d="M173.258 140.806C167.203 140.806 162.272 135.879 162.272 129.82C162.272 123.765 167.199 118.834 173.258 118.834C179.317 118.834 184.244 123.761 184.244 129.82C184.24 135.879 179.313 140.806 173.258 140.806ZM173.258 120.13C167.916 120.13 163.564 124.478 163.564 129.824C163.564 135.17 167.912 139.518 173.258 139.518C178.604 139.518 182.952 135.17 182.952 129.824C182.948 124.478 178.6 120.13 173.258 120.13Z" fill="white"/>
<path d="M363.224 210.707L366.878 217.538L374.504 218.901C374.68 218.932 374.751 219.148 374.625 219.277L369.256 224.862L370.313 232.539C370.337 232.719 370.153 232.852 369.992 232.774L363.02 229.394L356.049 232.774C355.888 232.852 355.704 232.719 355.727 232.539L356.785 224.862L351.415 219.277C351.29 219.148 351.36 218.932 351.537 218.901L359.162 217.538L362.817 210.707C362.911 210.551 363.138 210.551 363.224 210.707Z" fill="white"/>
<path d="M336.951 210.707L340.605 217.538L348.231 218.901C348.407 218.932 348.478 219.148 348.352 219.277L342.983 224.862L344.04 232.539C344.064 232.719 343.88 232.852 343.719 232.774L336.747 229.394L329.776 232.774C329.615 232.852 329.431 232.719 329.454 232.539L330.512 224.862L325.142 219.277C325.017 219.148 325.087 218.932 325.264 218.901L332.889 217.538L336.544 210.707C336.638 210.551 336.865 210.551 336.951 210.707Z" fill="white"/>
<path d="M310.678 210.707L314.332 217.538L321.958 218.901C322.134 218.932 322.205 219.148 322.079 219.277L316.71 224.862L317.767 232.539C317.791 232.719 317.607 232.852 317.446 232.774L310.474 229.394L303.503 232.774C303.342 232.852 303.158 232.719 303.181 232.539L304.239 224.862L298.869 219.277C298.744 219.148 298.814 218.932 298.991 218.901L306.616 217.538L310.271 210.707C310.369 210.551 310.596 210.551 310.678 210.707Z" fill="white"/>
<path d="M284.409 210.707L288.063 217.538L295.689 218.901C295.865 218.932 295.936 219.148 295.81 219.277L290.441 224.862L291.498 232.539C291.522 232.719 291.337 232.852 291.177 232.774L284.205 229.394L277.234 232.774C277.073 232.852 276.889 232.719 276.912 232.539L277.97 224.862L272.6 219.277C272.475 219.148 272.545 218.932 272.722 218.901L280.347 217.538L284.002 210.707C284.096 210.551 284.323 210.551 284.409 210.707Z" fill="white"/>
<path d="M258.136 210.707L261.79 217.538L269.416 218.901C269.592 218.932 269.663 219.148 269.537 219.277L264.168 224.862L265.225 232.539C265.249 232.719 265.065 232.852 264.904 232.774L257.932 229.394L250.961 232.774C250.8 232.852 250.616 232.719 250.639 232.539L251.697 224.862L246.327 219.277C246.202 219.148 246.272 218.932 246.449 218.901L254.074 217.538L257.729 210.707C257.823 210.551 258.05 210.551 258.136 210.707Z" fill="white"/>
</svg>
