<svg width="373" height="158" viewBox="0 0 373 158" fill="none" xmlns="http://www.w3.org/2000/svg">
<path d="M53.943 145.948H6.81786C3.32481 145.948 0.485107 143.109 0.485107 139.616V58.498C0.485107 55.005 3.32481 52.1653 6.81786 52.1653H88.2348C91.7278 52.1653 94.5675 55.005 94.5675 58.498V65.6922H93.3265V58.498C93.3265 55.6912 91.0416 53.4063 88.2348 53.4063H6.81786C4.01101 53.4063 1.72611 55.6912 1.72611 58.498V139.616C1.72611 142.422 4.01101 144.707 6.81786 144.707H53.943V145.948Z" fill="white"/>
<path d="M174.535 65.6921H173.294V33.6889C173.294 29.8929 170.207 26.805 166.411 26.805C162.615 26.805 159.527 29.8929 159.527 33.6889V65.6921H158.286V33.6889C158.286 29.2103 161.928 25.564 166.411 25.564C170.889 25.564 174.535 29.2067 174.535 33.6889V65.6921Z" fill="white"/>
<path d="M253.003 83.8946H251.762V72.1635C251.762 67.7616 248.181 64.1773 243.776 64.1773H197.622V62.9363H243.779C248.868 62.9363 253.007 67.0754 253.007 72.1635V83.8946H253.003Z" fill="white"/>
<path d="M317.502 72.1051H269.337C268.034 72.1051 266.975 71.0466 266.975 69.7435V63.0859C266.975 61.7829 268.034 60.7244 269.337 60.7244H317.502C318.805 60.7244 319.868 61.7829 319.868 63.0859V69.7435C319.864 71.0429 318.805 72.1051 317.502 72.1051ZM269.337 61.9617C268.716 61.9617 268.216 62.4654 268.216 63.0823V69.7399C268.216 70.3604 268.72 70.8604 269.337 70.8604H317.502C318.123 70.8604 318.623 70.3567 318.623 69.7399V63.0823C318.623 62.4618 318.119 61.9617 317.502 61.9617H269.337Z" fill="white"/>
<path d="M259.343 83.8945H258.102V69.5792C258.102 67.4914 259.803 65.7905 261.891 65.7905H267.596V67.0315H261.891C260.486 67.0315 259.343 68.174 259.343 69.5792V83.8945Z" fill="white"/>
<path d="M326.295 156.387H258.723V154.113H259.964V155.146H326.295C327.7 155.146 328.843 154.004 328.843 152.599V96.0967H330.084V152.599C330.084 154.69 328.383 156.387 326.295 156.387Z" fill="white"/>
<path d="M305.289 61.3413H304.048V58.8045C304.048 58.4468 303.756 58.1585 303.402 58.1585H285.342C284.984 58.1585 284.696 58.4505 284.696 58.8045V61.3413H283.455V58.8045C283.455 57.7643 284.302 56.9175 285.342 56.9175H303.402C304.443 56.9175 305.289 57.7643 305.289 58.8045V61.3413Z" fill="white"/>
<path d="M318.915 96.7208H309.607V87.4133H318.915V96.7208ZM310.845 95.4798H317.67V88.6543H310.845V95.4798Z" fill="white"/>
<path d="M318.915 115.544H309.607V106.236H318.915V115.544ZM310.845 114.303H317.67V107.477H310.845V114.303Z" fill="white"/>
<path d="M318.915 134.367H309.607V125.059H318.915V134.367ZM310.845 133.126H317.67V126.3H310.845V133.126Z" fill="white"/>
<path d="M279.776 140.572H242.422C240.458 140.572 238.863 138.977 238.863 137.013V86.8329C238.863 84.8692 240.458 83.2742 242.422 83.2742H279.776C281.74 83.2742 283.335 84.8692 283.335 86.8329V137.013C283.335 138.973 281.74 140.572 279.776 140.572ZM242.422 84.5152C241.144 84.5152 240.104 85.5554 240.104 86.8329V137.013C240.104 138.291 241.144 139.331 242.422 139.331H279.776C281.053 139.331 282.094 138.291 282.094 137.013V86.8329C282.094 85.5554 281.053 84.5152 279.776 84.5152H242.422Z" fill="white"/>
<path d="M278.502 100.444H243.9C243.403 100.444 242.998 100.039 242.998 99.5422V88.7272C242.998 88.2308 243.403 87.8257 243.9 87.8257H278.502C278.998 87.8257 279.403 88.2308 279.403 88.7272V99.5422C279.407 100.039 279.002 100.444 278.502 100.444ZM244.243 99.2027H278.166V89.0667H244.243V99.2027Z" fill="white"/>
<path d="M250.182 110.164H244.922C244.207 110.164 243.623 109.58 243.623 108.864V103.605C243.623 102.889 244.207 102.305 244.922 102.305H250.182C250.897 102.305 251.481 102.889 251.481 103.605V108.864C251.481 109.58 250.897 110.164 250.182 110.164ZM244.922 103.546C244.889 103.546 244.864 103.572 244.864 103.605V108.864C244.864 108.897 244.889 108.923 244.922 108.923H250.182C250.214 108.923 250.24 108.897 250.24 108.864V103.605C250.24 103.572 250.214 103.546 250.182 103.546H244.922Z" fill="white"/>
<path d="M259.281 110.164H254.021C253.306 110.164 252.722 109.58 252.722 108.864V103.605C252.722 102.889 253.306 102.305 254.021 102.305H259.281C259.996 102.305 260.58 102.889 260.58 103.605V108.864C260.584 109.58 260 110.164 259.281 110.164ZM254.021 103.546C253.988 103.546 253.963 103.572 253.963 103.605V108.864C253.963 108.897 253.988 108.923 254.021 108.923H259.281C259.314 108.923 259.339 108.897 259.339 108.864V103.605C259.339 103.572 259.314 103.546 259.281 103.546H254.021Z" fill="white"/>
<path d="M268.384 110.164H263.125C262.409 110.164 261.825 109.58 261.825 108.864V103.605C261.825 102.889 262.409 102.305 263.125 102.305H268.384C269.1 102.305 269.684 102.889 269.684 103.605V108.864C269.684 109.58 269.1 110.164 268.384 110.164ZM263.125 103.546C263.092 103.546 263.066 103.572 263.066 103.605V108.864C263.066 108.897 263.092 108.923 263.125 108.923H268.384C268.417 108.923 268.443 108.897 268.443 108.864V103.605C268.443 103.572 268.417 103.546 268.384 103.546H263.125Z" fill="white"/>
<path d="M277.484 110.164H272.224C271.509 110.164 270.925 109.58 270.925 108.864V103.605C270.925 102.889 271.509 102.305 272.224 102.305H277.484C278.199 102.305 278.783 102.889 278.783 103.605V108.864C278.787 109.58 278.203 110.164 277.484 110.164ZM272.224 103.546C272.191 103.546 272.166 103.572 272.166 103.605V108.864C272.166 108.897 272.191 108.923 272.224 108.923H277.484C277.516 108.923 277.542 108.897 277.542 108.864V103.605C277.542 103.572 277.516 103.546 277.484 103.546H272.224Z" fill="white"/>
<path d="M250.182 118.851H244.922C244.207 118.851 243.623 118.267 243.623 117.551V112.292C243.623 111.576 244.207 110.992 244.922 110.992H250.182C250.897 110.992 251.481 111.576 251.481 112.292V117.551C251.481 118.267 250.897 118.851 250.182 118.851ZM244.922 112.233C244.889 112.233 244.864 112.259 244.864 112.292V117.551C244.864 117.584 244.889 117.61 244.922 117.61H250.182C250.214 117.61 250.24 117.584 250.24 117.551V112.292C250.24 112.259 250.214 112.233 250.182 112.233H244.922Z" fill="white"/>
<path d="M259.281 118.851H254.021C253.306 118.851 252.722 118.267 252.722 117.551V112.292C252.722 111.576 253.306 110.992 254.021 110.992H259.281C259.996 110.992 260.58 111.576 260.58 112.292V117.551C260.584 118.267 260 118.851 259.281 118.851ZM254.021 112.233C253.988 112.233 253.963 112.259 253.963 112.292V117.551C253.963 117.584 253.988 117.61 254.021 117.61H259.281C259.314 117.61 259.339 117.584 259.339 117.551V112.292C259.339 112.259 259.314 112.233 259.281 112.233H254.021Z" fill="white"/>
<path d="M268.384 118.851H263.125C262.409 118.851 261.825 118.267 261.825 117.551V112.292C261.825 111.576 262.409 110.992 263.125 110.992H268.384C269.1 110.992 269.684 111.576 269.684 112.292V117.551C269.684 118.267 269.1 118.851 268.384 118.851ZM263.125 112.233C263.092 112.233 263.066 112.259 263.066 112.292V117.551C263.066 117.584 263.092 117.61 263.125 117.61H268.384C268.417 117.61 268.443 117.584 268.443 117.551V112.292C268.443 112.259 268.417 112.233 268.384 112.233H263.125Z" fill="white"/>
<path d="M277.484 118.851H272.224C271.509 118.851 270.925 118.267 270.925 117.551V112.292C270.925 111.576 271.509 110.992 272.224 110.992H277.484C278.199 110.992 278.783 111.576 278.783 112.292V117.551C278.787 118.267 278.203 118.851 277.484 118.851ZM272.224 112.233C272.191 112.233 272.166 112.259 272.166 112.292V117.551C272.166 117.584 272.191 117.61 272.224 117.61H277.484C277.516 117.61 277.542 117.584 277.542 117.551V112.292C277.542 112.259 277.516 112.233 277.484 112.233H272.224Z" fill="white"/>
<path d="M250.182 127.538H244.922C244.207 127.538 243.623 126.954 243.623 126.238V120.979C243.623 120.263 244.207 119.679 244.922 119.679H250.182C250.897 119.679 251.481 120.263 251.481 120.979V126.238C251.481 126.957 250.897 127.538 250.182 127.538ZM244.922 120.92C244.889 120.92 244.864 120.946 244.864 120.979V126.238C244.864 126.271 244.889 126.297 244.922 126.297H250.182C250.214 126.297 250.24 126.271 250.24 126.238V120.979C250.24 120.946 250.214 120.92 250.182 120.92H244.922Z" fill="white"/>
<path d="M259.281 127.538H254.021C253.306 127.538 252.722 126.954 252.722 126.238V120.979C252.722 120.263 253.306 119.679 254.021 119.679H259.281C259.996 119.679 260.58 120.263 260.58 120.979V126.238C260.584 126.957 260 127.538 259.281 127.538ZM254.021 120.92C253.988 120.92 253.963 120.946 253.963 120.979V126.238C253.963 126.271 253.988 126.297 254.021 126.297H259.281C259.314 126.297 259.339 126.271 259.339 126.238V120.979C259.339 120.946 259.314 120.92 259.281 120.92H254.021Z" fill="white"/>
<path d="M268.384 127.538H263.125C262.409 127.538 261.825 126.954 261.825 126.238V120.979C261.825 120.263 262.409 119.679 263.125 119.679H268.384C269.1 119.679 269.684 120.263 269.684 120.979V126.238C269.684 126.957 269.1 127.538 268.384 127.538ZM263.125 120.92C263.092 120.92 263.066 120.946 263.066 120.979V126.238C263.066 126.271 263.092 126.297 263.125 126.297H268.384C268.417 126.297 268.443 126.271 268.443 126.238V120.979C268.443 120.946 268.417 120.92 268.384 120.92H263.125Z" fill="white"/>
<path d="M277.484 127.538H272.224C271.509 127.538 270.925 126.954 270.925 126.238V120.979C270.925 120.263 271.509 119.679 272.224 119.679H277.484C278.199 119.679 278.783 120.263 278.783 120.979V126.238C278.787 126.957 278.203 127.538 277.484 127.538ZM272.224 120.92C272.191 120.92 272.166 120.946 272.166 120.979V126.238C272.166 126.271 272.191 126.297 272.224 126.297H277.484C277.516 126.297 277.542 126.271 277.542 126.238V120.979C277.542 120.946 277.516 120.92 277.484 120.92H272.224Z" fill="white"/>
<path d="M250.182 136.228H244.922C244.207 136.228 243.623 135.644 243.623 134.929V129.669C243.623 128.954 244.207 128.37 244.922 128.37H250.182C250.897 128.37 251.481 128.954 251.481 129.669V134.929C251.481 135.644 250.897 136.228 250.182 136.228ZM244.922 129.607C244.889 129.607 244.864 129.633 244.864 129.666V134.925C244.864 134.958 244.889 134.984 244.922 134.984H250.182C250.214 134.984 250.24 134.958 250.24 134.925V129.666C250.24 129.633 250.214 129.607 250.182 129.607H244.922Z" fill="white"/>
<path d="M259.281 136.228H254.021C253.306 136.228 252.722 135.644 252.722 134.929V129.669C252.722 128.954 253.306 128.37 254.021 128.37H259.281C259.996 128.37 260.58 128.954 260.58 129.669V134.929C260.584 135.644 260 136.228 259.281 136.228ZM254.021 129.607C253.988 129.607 253.963 129.633 253.963 129.666V134.925C253.963 134.958 253.988 134.984 254.021 134.984H259.281C259.314 134.984 259.339 134.958 259.339 134.925V129.666C259.339 129.633 259.314 129.607 259.281 129.607H254.021Z" fill="white"/>
<path d="M268.384 136.228H263.125C262.409 136.228 261.825 135.644 261.825 134.929V129.669C261.825 128.954 262.409 128.37 263.125 128.37H268.384C269.1 128.37 269.684 128.954 269.684 129.669V134.929C269.684 135.644 269.1 136.228 268.384 136.228ZM263.125 129.607C263.092 129.607 263.066 129.633 263.066 129.666V134.925C263.066 134.958 263.092 134.984 263.125 134.984H268.384C268.417 134.984 268.443 134.958 268.443 134.925V129.666C268.443 129.633 268.417 129.607 268.384 129.607H263.125Z" fill="white"/>
<path d="M277.484 136.228H272.224C271.509 136.228 270.925 135.644 270.925 134.929V129.669C270.925 128.954 271.509 128.37 272.224 128.37H277.484C278.199 128.37 278.783 128.954 278.783 129.669V134.929C278.787 135.644 278.203 136.228 277.484 136.228ZM272.224 129.607C272.191 129.607 272.166 129.633 272.166 129.666V134.925C272.166 134.958 272.191 134.984 272.224 134.984H277.484C277.516 134.984 277.542 134.958 277.542 134.925V129.666C277.542 129.633 277.516 129.607 277.484 129.607H272.224Z" fill="white"/>
<path d="M95.9326 123.61C89.4319 123.61 84.1431 118.321 84.1431 111.821C84.1431 105.32 89.4319 100.031 95.9326 100.031C96.9619 100.031 97.9875 100.166 98.9803 100.433L99.5789 100.593L96.8414 110.821L106.762 107.12L106.977 107.7C107.47 109.021 107.718 110.408 107.718 111.821C107.722 118.321 102.433 123.61 95.9326 123.61ZM95.9326 101.269C90.1145 101.269 85.3841 106.003 85.3841 111.817C85.3841 117.632 90.1181 122.366 95.9326 122.366C101.747 122.366 106.481 117.632 106.481 111.817C106.481 110.759 106.324 109.718 106.018 108.718L95.0237 112.821L98.0569 101.484C97.3597 101.342 96.648 101.269 95.9326 101.269Z" fill="white"/>
<path d="M97.9182 109.718L101.276 97.166L101.875 97.3266C105.55 98.3085 108.543 101.024 109.876 104.594L110.091 105.174L97.9182 109.718ZM102.152 98.7027L99.7396 107.715L108.481 104.455C107.277 101.732 104.97 99.6371 102.152 98.7027Z" fill="white"/>
<path d="M177.43 134.779H124.063V83.8945H125.304V133.538H177.43V134.779Z" fill="white"/>
<path d="M124.684 126.297H117.712V127.538H124.684V126.297Z" fill="white"/>
<path d="M124.684 117.61H117.712V118.851H124.684V117.61Z" fill="white"/>
<path d="M124.684 108.923H117.712V110.164H124.684V108.923Z" fill="white"/>
<path d="M124.684 100.236H117.712V101.477H124.684V100.236Z" fill="white"/>
<path d="M124.684 91.5486H117.712V92.7896H124.684V91.5486Z" fill="white"/>
<path d="M140.82 134.779H130.476V106.441H140.82V134.779ZM131.717 133.538H139.576V107.682H131.717V133.538Z" fill="white"/>
<path d="M156.333 134.779H145.989V114.303H156.333V134.779ZM147.23 133.538H155.088V115.544H147.23V133.538Z" fill="white"/>
<path d="M171.845 134.779H161.501V97.3413H171.845V134.779ZM162.746 133.538H170.604V98.5823H162.746V133.538Z" fill="white"/>
<path d="M148.372 107.28L141.912 96.9433L128.334 105.112L127.691 104.046L142.317 95.2534L148.529 105.189L165.326 85.5663L166.272 86.373L148.372 107.28Z" fill="white"/>
<path d="M166.98 92.3955L165.739 92.4466L165.491 86.3328L159.41 87.0263L159.271 85.7926L166.677 84.9458L166.98 92.3955Z" fill="white"/>
<path d="M105.671 78.938H84.7637V80.179H105.671V78.938Z" fill="white"/>
<path d="M108.343 86.8H84.7637V88.0411H108.343V86.8Z" fill="white"/>
<path d="M86.8914 35.8753L86.2381 35.0321C85.6833 34.3167 84.8438 33.9079 83.9386 33.9079C83.0334 33.9079 82.1939 34.3167 81.6391 35.0321L80.9857 35.8753L80.4857 35.7767C78.8031 35.4482 77.1752 34.8825 75.6495 34.0868L75.1859 33.8459L75.2297 32.6998C75.2625 31.7946 74.883 30.9405 74.1895 30.3601C73.496 29.7798 72.5907 29.5535 71.7038 29.7433L70.4336 30.017L70.1124 29.6338C69.0575 28.3672 68.1779 26.9547 67.5026 25.4436L67.2836 24.9508L68.2911 23.8339C68.897 23.1623 69.1561 22.2644 68.9992 21.3738C68.8422 20.4832 68.291 19.7277 67.4917 19.3043L65.9441 18.4867L65.9477 17.983C65.9587 16.4244 66.1704 14.8768 66.5792 13.3803L66.7215 12.8547L68.6779 12.5846C69.5758 12.4605 70.3497 11.9386 70.8023 11.1538C71.2549 10.3691 71.3205 9.43834 70.9774 8.59884L70.1452 6.55483L70.4883 6.17159C71.4373 5.10579 72.5068 4.15314 73.6748 3.34284C74.0033 3.11289 74.4376 3.10194 74.7771 3.31729L76.2079 4.21518C76.9744 4.69698 77.9015 4.79554 78.752 4.48529C79.6024 4.17504 80.2484 3.50343 80.5295 2.64203L81.2777 0.316985L81.8033 0.254941C82.5333 0.167341 83.2524 0.123535 83.9386 0.123535C84.6248 0.123535 85.3438 0.167341 86.0738 0.254941L86.5995 0.316985L87.3477 2.64203C87.6251 3.50343 88.2748 4.17504 89.1252 4.48529C89.9757 4.79554 90.9028 4.69698 91.6693 4.21518L93.6549 2.96689L94.1038 3.27349C95.3083 4.09839 96.4106 5.07294 97.3852 6.17159L97.7283 6.55483L96.8961 8.59884C96.5566 9.43834 96.6187 10.3691 97.0713 11.1538C97.5239 11.9386 98.2977 12.4605 99.1956 12.5846L101.152 12.8547L101.294 13.3803C101.703 14.8768 101.915 16.4244 101.926 17.983L101.929 18.4867L100.382 19.3043C99.5825 19.7277 99.0313 20.4832 98.8744 21.3738C98.7174 22.2644 98.9766 23.1623 99.5825 23.8339L100.59 24.9508L100.371 25.4436C99.6956 26.9583 98.816 28.3672 97.7611 29.6338L97.4399 30.017L96.1698 29.7433C95.2828 29.5535 94.3776 29.7761 93.6841 30.3601C92.9906 30.9405 92.611 31.7946 92.6438 32.6998L92.6876 33.8459L92.2241 34.0868C90.6984 34.8825 89.0705 35.4482 87.3878 35.7767L86.8914 35.8753ZM76.8722 32.8531C77.9708 33.3823 79.1206 33.7838 80.3032 34.0503L80.3287 34.0174C81.2011 32.8969 82.5151 32.2545 83.9349 32.2545C85.3548 32.2545 86.6688 32.8969 87.5411 34.0174L87.5667 34.0503C88.7493 33.7802 89.899 33.3787 90.9977 32.8531L90.994 32.7618C90.9429 31.342 91.5343 30.0061 92.622 29.0936C93.7097 28.1811 95.1295 27.827 96.5165 28.1263L96.8012 28.1884C97.5129 27.2795 98.1262 26.294 98.6335 25.2538L98.3561 24.9435C97.4034 23.8887 96.9983 22.4834 97.2465 21.0855C97.4947 19.6875 98.3524 18.5049 99.608 17.8406L100.261 17.4939C100.221 16.4281 100.079 15.3732 99.8343 14.3403L98.9729 14.2198C97.5677 14.0264 96.3522 13.2088 95.6441 11.9787C94.9324 10.7487 94.8338 9.28869 95.3667 7.97469L95.8084 6.89064C95.1331 6.17889 94.3995 5.52554 93.6111 4.94884L92.5526 5.61314C91.3517 6.36869 89.8954 6.52199 88.5631 6.03654C87.2272 5.55109 86.2126 4.49623 85.7782 3.14573L85.3584 1.83904C84.3912 1.75144 83.4933 1.75144 82.526 1.83904L82.1063 3.14573C81.6719 4.49623 80.6536 5.55109 79.3213 6.03654C77.9855 6.52199 76.5327 6.36869 75.3319 5.61314L74.2734 4.94884C73.485 5.52919 72.7513 6.17889 72.0761 6.89064L72.5177 7.97469C73.0506 9.28869 72.9521 10.7487 72.2403 11.9787C71.5286 13.2088 70.3168 14.0264 68.9115 14.2198L68.0501 14.3403C67.8056 15.3732 67.6632 16.4317 67.6231 17.4939L68.2764 17.8406C69.532 18.5049 70.3934 19.6875 70.638 21.0855C70.8825 22.4834 70.481 23.8887 69.5284 24.9435L69.251 25.2538C69.7584 26.2977 70.3715 27.2795 71.0833 28.1884L71.368 28.1263C72.755 27.827 74.1748 28.1811 75.2625 29.0936C76.3502 30.0061 76.9452 31.342 76.8904 32.7618L76.8722 32.8531Z" fill="white"/>
<path d="M83.9352 25.9765C79.4858 25.9765 75.8687 22.3594 75.8687 17.91C75.8687 13.4607 79.4858 9.84351 83.9352 9.84351C88.3845 9.84351 92.0017 13.4607 92.0017 17.91C92.0017 22.3594 88.3845 25.9765 83.9352 25.9765ZM83.9352 11.5006C80.3983 11.5006 77.5221 14.3768 77.5221 17.9137C77.5221 21.4505 80.3983 24.3267 83.9352 24.3267C87.472 24.3267 90.3482 21.4505 90.3482 17.9137C90.3482 14.3768 87.472 11.5006 83.9352 11.5006Z" fill="white"/>
<path d="M109.788 51.2234L109.375 50.4533C109.138 50.0116 108.715 49.7087 108.218 49.6247C107.722 49.5408 107.226 49.6868 106.853 50.0299L106.211 50.6212L105.736 50.4423C104.66 50.0372 103.649 49.4824 102.729 48.7889L102.313 48.475L102.502 47.5625C102.605 47.0697 102.477 46.566 102.148 46.1864C101.824 45.8032 101.349 45.5988 100.845 45.6207L99.8234 45.6681L99.5715 45.2374C99.0131 44.2848 98.5933 43.2555 98.3123 42.1787L98.1772 41.6568L99.0934 40.9304C99.4876 40.6202 99.7139 40.1493 99.7102 39.6493C99.7066 39.1456 99.4766 38.682 99.0751 38.3754L98.0276 37.5724L98.1152 37.076C98.2977 36.0504 98.6079 35.0503 99.0459 34.1049L99.2759 33.6085L100.754 33.6523C101.258 33.6669 101.729 33.4516 102.05 33.0647C102.371 32.6778 102.492 32.1741 102.382 31.6813L102.028 30.0972L102.429 29.776C103.174 29.1774 103.988 28.6664 104.849 28.2613C105.189 28.1007 105.594 28.1591 105.875 28.4073L106.7 29.1409C107.076 29.4767 107.576 29.6154 108.069 29.5242C108.565 29.4329 108.981 29.1263 109.211 28.6774L110.032 27.0969L110.562 27.1225C111.054 27.148 111.533 27.1991 111.985 27.2758C112.438 27.3524 112.909 27.4619 113.379 27.6006L113.89 27.7503L114.15 29.5132C114.223 30.0096 114.515 30.4403 114.953 30.6885C115.391 30.9367 115.909 30.9696 116.372 30.7761L117.964 30.1155L118.354 30.4914C119.059 31.1703 119.679 31.9368 120.201 32.769L120.475 33.2034L119.625 34.5831C119.362 35.0101 119.311 35.5284 119.486 35.9993C119.661 36.4701 120.037 36.8278 120.519 36.9775L121.931 37.4191L121.986 37.963C122.088 38.9959 122.056 40.0435 121.891 41.0728L121.811 41.5692L120.559 41.9853C120.081 42.1422 119.712 42.5072 119.541 42.9817C119.373 43.4562 119.431 43.9709 119.701 44.3943L120.329 45.3798L120.03 45.8287C119.417 46.7522 118.679 47.588 117.84 48.3071L117.46 48.6319L116.508 48.2523C116.04 48.0662 115.522 48.1063 115.088 48.3618C114.653 48.6173 114.369 49.048 114.303 49.5481L114.182 50.4715L113.686 50.6321C112.587 50.9862 111.449 51.1833 110.303 51.2088L109.788 51.2234ZM107.941 47.9457C108.123 47.9457 108.31 47.9603 108.492 47.9932C109.445 48.1538 110.259 48.7086 110.751 49.5298C111.401 49.4824 112.047 49.3729 112.679 49.2013C112.843 48.2487 113.409 47.4238 114.248 46.931C115.124 46.4164 116.172 46.3361 117.117 46.712L117.124 46.7157C117.57 46.2959 117.975 45.836 118.34 45.3433L118.3 45.2776C117.752 44.4198 117.632 43.3796 117.975 42.4196C118.314 41.4597 119.066 40.726 120.03 40.4085L120.314 40.3136C120.377 39.7661 120.395 39.2113 120.369 38.6601L120.015 38.5506C119.044 38.244 118.285 37.525 117.927 36.5723C117.573 35.6197 117.676 34.5758 118.208 33.7107L118.511 33.218C118.227 32.8092 117.913 32.4223 117.573 32.0573L117 32.2945C116.062 32.6851 115.015 32.6194 114.128 32.1193C113.244 31.6156 112.649 30.7506 112.503 29.7468L112.401 29.0497C112.164 28.9913 111.934 28.9438 111.704 28.9073C111.474 28.8672 111.237 28.838 110.996 28.8161L110.671 29.4439C110.204 30.3454 109.361 30.9696 108.361 31.1557C107.361 31.3382 106.35 31.0572 105.59 30.3819L105.127 29.9695C104.689 30.2031 104.265 30.4659 103.86 30.7579L103.984 31.3236C104.207 32.3164 103.962 33.3348 103.313 34.1195C102.663 34.9043 101.71 35.3386 100.692 35.3058L100.32 35.2948C100.115 35.8058 99.9511 36.3351 99.8307 36.8753L100.072 37.0578C100.878 37.6746 101.345 38.6163 101.356 39.631C101.364 40.6494 100.911 41.5947 100.112 42.2262L100.05 42.2736C100.232 42.8576 100.466 43.427 100.75 43.9672H100.761C101.78 43.9198 102.74 44.3395 103.4 45.1133C104.032 45.8543 104.298 46.8179 104.138 47.7705C104.678 48.1392 105.251 48.4531 105.85 48.7122C106.448 48.2122 107.182 47.9457 107.941 47.9457Z" fill="white"/>
<path d="M110.007 44.5878C109.7 44.5878 109.39 44.5622 109.08 44.5111C106.058 44.0001 104.01 41.1276 104.521 38.1017C104.769 36.6381 105.569 35.3569 106.78 34.4955C107.992 33.6341 109.463 33.2947 110.93 33.5429C112.394 33.7911 113.675 34.5904 114.537 35.8022C115.398 37.014 115.738 38.485 115.489 39.9523C115.033 42.6642 112.672 44.5878 110.007 44.5878ZM109.996 35.1197C109.189 35.1197 108.408 35.3679 107.74 35.846C106.89 36.4519 106.328 37.3498 106.153 38.3791C105.795 40.5034 107.233 42.5219 109.357 42.8796C111.482 43.2373 113.5 41.7992 113.858 39.6749C114.029 38.6456 113.792 37.6126 113.19 36.7622C112.584 35.9117 111.686 35.3496 110.657 35.1744C110.434 35.1379 110.215 35.1197 109.996 35.1197Z" fill="white"/>
<path d="M327.761 37.7792L326.44 36.0089C325.9 35.2826 325.068 34.8555 324.162 34.8409C323.253 34.8263 322.41 35.2169 321.841 35.9213L320.6 37.4543L320.074 37.3047C318.581 36.8813 317.147 36.2608 315.807 35.4651L315.377 35.2096L315.475 33.4612C315.526 32.556 315.165 31.6983 314.482 31.1033C313.8 30.5084 312.898 30.2638 312.011 30.439L310.537 30.7274L310.23 30.2857C309.281 28.9243 308.529 27.4424 307.989 25.8838L307.825 25.4093L308.715 24.4603C309.336 23.7997 309.61 22.9091 309.471 22.0148C309.332 21.1206 308.796 20.3541 308.004 19.9161L307 19.3613L307.033 18.8393C307.142 17.1202 307.496 15.4339 308.088 13.8242L308.263 13.3461L309.321 13.222C310.219 13.1161 311.004 12.6088 311.471 11.835C311.938 11.0612 312.022 10.1304 311.698 9.28362L311.314 8.28718L311.654 7.91122C312.803 6.64102 314.132 5.53873 315.603 4.64448L316.048 4.37073L317.008 4.99852C317.764 5.49492 318.691 5.61173 319.549 5.31973C320.406 5.02773 321.067 4.36707 321.359 3.51297L321.782 2.28292L322.275 2.20626C323.907 1.95806 325.568 1.93251 327.214 2.13691L327.75 2.20263L328.185 3.64437C328.447 4.51307 329.079 5.19562 329.926 5.52047C330.769 5.84532 331.7 5.76503 332.477 5.30148L333.977 4.39992L334.404 4.66273C335.733 5.47668 336.948 6.45853 338.018 7.58273L338.394 7.97691L337.616 9.79098C337.259 10.6232 337.306 11.5539 337.74 12.346C338.178 13.138 338.941 13.6746 339.835 13.8169L342.014 14.1637L342.168 14.6564C342.591 16.0179 342.85 17.4304 342.945 18.8466C342.971 19.2481 342.755 19.6241 342.398 19.8029L340.89 20.5621C340.084 20.9709 339.518 21.7119 339.343 22.6025C339.167 23.4894 339.408 24.391 340.003 25.0772L341.606 26.9204L341.387 27.4022C341.084 28.0702 340.748 28.7089 340.394 29.2966C340.04 29.8842 339.631 30.4755 339.178 31.0559L338.854 31.4756L336.477 30.9172C335.598 30.7091 334.685 30.9172 333.981 31.4866C333.276 32.056 332.882 32.8991 332.897 33.8043L332.937 36.1513L332.44 36.3776C331.112 36.9798 329.707 37.4215 328.265 37.6916L327.761 37.7792ZM324.104 33.1838C324.133 33.1838 324.166 33.1838 324.195 33.1838C325.615 33.213 326.914 33.881 327.765 35.0161L328.466 35.9542C329.426 35.7461 330.364 35.4505 331.265 35.0782L331.243 33.8299C331.218 32.41 331.838 31.0851 332.944 30.1945C334.05 29.3039 335.474 28.979 336.857 29.3039L338.193 29.6178C338.481 29.2236 338.74 28.8367 338.981 28.4388C339.219 28.0483 339.445 27.6285 339.66 27.1942L338.759 26.1576C337.828 25.0845 337.452 23.6719 337.722 22.2813C337.996 20.887 338.879 19.7226 340.149 19.0839L341.266 18.5218C341.179 17.5472 341 16.5836 340.737 15.6346L339.584 15.4521C338.182 15.2295 336.985 14.39 336.299 13.1453C335.612 11.9007 335.539 10.4407 336.101 9.13763L336.445 8.33828C335.685 7.59368 334.857 6.92572 333.966 6.34172L333.335 6.72134C332.116 7.45134 330.659 7.57907 329.334 7.06807C328.009 6.55707 327.017 5.48396 326.608 4.12251L326.487 3.72468C325.334 3.61883 324.173 3.63708 323.027 3.77578L322.932 4.04953C322.469 5.39273 321.436 6.42567 320.093 6.88557C318.749 7.34547 317.297 7.16297 316.11 6.38552L316.034 6.33441C315.015 7.00236 314.077 7.77983 313.234 8.65218L313.249 8.69232C313.756 10.0173 313.628 11.4736 312.895 12.6891C312.161 13.9045 310.931 14.6966 309.522 14.8645L309.482 14.8681C309.099 16.0215 308.851 17.2114 308.734 18.4269L308.814 18.4707C310.055 19.1605 310.895 20.3577 311.114 21.7593C311.333 23.1609 310.902 24.5589 309.927 25.5955L309.727 25.8072C310.135 26.8876 310.661 27.9205 311.292 28.8914L311.701 28.8111C313.096 28.541 314.508 28.9206 315.577 29.855C316.647 30.7894 317.213 32.1363 317.132 33.5561L317.092 34.2934C318.023 34.8081 319.005 35.2315 320.016 35.5563L320.563 34.8811C321.432 33.8007 322.721 33.1838 324.104 33.1838Z" fill="white"/>
<path d="M325.154 28.1647C323.734 28.1647 322.299 27.7924 320.996 27.004C319.153 25.8907 317.85 24.1241 317.335 22.0327C316.817 19.9412 317.146 17.7731 318.262 15.9299C319.376 14.0866 321.142 12.7836 323.234 12.2689C325.325 11.7506 327.493 12.0791 329.337 13.196C331.18 14.3093 332.483 16.0759 332.997 18.1673C333.516 20.2588 333.187 22.4269 332.07 24.2701C330.559 26.7777 327.891 28.1647 325.154 28.1647ZM325.179 13.6851C324.665 13.6851 324.143 13.7472 323.628 13.8749C321.964 14.2874 320.562 15.3203 319.679 16.784C318.792 18.2513 318.533 19.9741 318.941 21.6348C319.354 23.2992 320.387 24.7008 321.85 25.5878C324.876 27.4164 328.826 26.4382 330.654 23.4124C331.541 21.9451 331.8 20.2223 331.391 18.5615C330.979 16.8971 329.946 15.4955 328.479 14.6086C327.468 13.999 326.333 13.6851 325.179 13.6851Z" fill="white"/>
<path d="M354.152 137.663L353.411 136.221C353.181 135.772 352.765 135.462 352.272 135.371C351.779 135.276 351.279 135.414 350.9 135.747L349.79 136.725L349.297 136.491C348.359 136.046 347.48 135.477 346.684 134.801L346.301 134.476L346.593 133.188C346.706 132.699 346.585 132.192 346.268 131.805C345.95 131.414 345.472 131.199 344.976 131.213L343.808 131.243L343.578 130.753C343.103 129.75 342.771 128.688 342.589 127.596L342.505 127.103L343.319 126.487C343.72 126.184 343.954 125.72 343.957 125.216C343.965 124.713 343.742 124.245 343.348 123.932L342.618 123.351L342.738 122.84C343.001 121.716 343.424 120.643 343.994 119.643L344.246 119.201L345.118 119.245C345.622 119.271 346.096 119.066 346.425 118.683C346.753 118.3 346.885 117.8 346.782 117.307L346.611 116.449L347.009 116.135C347.91 115.423 348.91 114.843 349.98 114.416L350.465 114.223L351.148 114.854C351.516 115.197 352.013 115.347 352.509 115.263C353.006 115.183 353.429 114.88 353.67 114.438L354.159 113.54L354.659 113.547C355.765 113.566 356.864 113.733 357.93 114.051L358.448 114.204L358.594 115.365C358.656 115.865 358.941 116.299 359.375 116.555C359.809 116.81 360.324 116.854 360.791 116.668L362.021 116.186L362.401 116.518C363.186 117.205 363.879 117.989 364.463 118.847L364.77 119.3L363.967 120.544C363.693 120.968 363.634 121.482 363.799 121.957C363.967 122.431 364.335 122.796 364.81 122.957L366.346 123.472L366.416 123.983C366.544 124.928 366.558 125.888 366.463 126.837C366.423 127.213 366.168 127.527 365.806 127.64L364.751 127.965C364.27 128.114 363.894 128.469 363.715 128.939C363.536 129.41 363.587 129.925 363.85 130.356L364.777 131.874L364.481 132.316C364.208 132.724 363.916 133.108 363.616 133.458C363.317 133.808 362.981 134.152 362.616 134.487L362.226 134.845L360.583 134.155C360.12 133.962 359.601 133.991 359.163 134.236C358.725 134.484 358.43 134.907 358.357 135.407L358.101 137.112L357.575 137.25C356.63 137.502 355.652 137.637 354.67 137.652L354.152 137.663ZM351.962 133.684C352.166 133.684 352.371 133.703 352.579 133.743C353.579 133.933 354.418 134.557 354.882 135.462L355.145 135.977C355.641 135.944 356.137 135.878 356.623 135.776L356.714 135.163C356.867 134.155 357.462 133.294 358.349 132.794C359.236 132.297 360.284 132.235 361.222 132.63L361.872 132.903C362.043 132.732 362.204 132.557 362.357 132.381C362.51 132.202 362.656 132.02 362.802 131.823L362.434 131.221C361.904 130.352 361.806 129.308 362.164 128.355C362.521 127.403 363.288 126.684 364.259 126.384L364.85 126.202C364.879 125.705 364.872 125.209 364.828 124.713L364.281 124.53C363.317 124.205 362.569 123.472 362.233 122.508C361.897 121.548 362.021 120.508 362.572 119.65L362.773 119.336C362.441 118.898 362.072 118.482 361.674 118.099L361.393 118.208C360.448 118.581 359.4 118.497 358.528 117.978C357.652 117.46 357.079 116.584 356.951 115.573L356.94 115.496C356.345 115.35 355.74 115.259 355.13 115.219L355.126 115.226C354.641 116.121 353.783 116.726 352.779 116.891C351.819 117.048 350.859 116.778 350.122 116.15C349.527 116.424 348.961 116.752 348.432 117.128C348.578 118.073 348.308 119.022 347.677 119.756C347.049 120.486 346.155 120.895 345.198 120.895C345.195 120.895 345.195 120.895 345.195 120.895C344.899 121.475 344.662 122.085 344.479 122.712C345.213 123.344 345.622 124.253 345.611 125.227C345.6 126.246 345.125 127.18 344.315 127.797L344.308 127.804C344.439 128.399 344.622 128.987 344.852 129.553L344.928 129.549C345.943 129.523 346.899 129.961 347.542 130.746C348.188 131.535 348.425 132.553 348.202 133.546L348.137 133.838C348.575 134.173 349.038 134.476 349.524 134.739L349.801 134.495C350.411 133.973 351.173 133.684 351.962 133.684Z" fill="white"/>
<path d="M354.568 131.25C353.283 131.25 351.995 130.808 350.947 129.907C348.622 127.906 348.356 124.388 350.356 122.063C352.356 119.738 355.875 119.471 358.2 121.471C359.328 122.439 360.01 123.789 360.12 125.271C360.233 126.753 359.758 128.187 358.791 129.315C357.692 130.596 356.134 131.25 354.568 131.25ZM354.575 121.789C353.477 121.789 352.382 122.249 351.611 123.147C350.206 124.782 350.392 127.253 352.028 128.655C353.663 130.056 356.134 129.874 357.535 128.239C358.214 127.446 358.547 126.439 358.47 125.399C358.39 124.359 357.911 123.41 357.119 122.731C356.386 122.096 355.477 121.789 354.575 121.789Z" fill="white"/>
<path d="M317.794 102.396L325.554 88.7673C322.966 84.7158 321.601 80.0365 321.601 75.2039C321.601 61.2901 332.92 49.9678 346.837 49.9678C360.751 49.9678 372.073 61.2901 372.073 75.2039C372.073 89.1177 360.755 100.44 346.837 100.44C341.742 100.44 336.844 98.9325 332.653 96.0782L317.794 102.396ZM346.837 51.2124C333.606 51.2124 322.842 61.9763 322.842 75.2075C322.842 79.9233 324.211 84.4858 326.799 88.4059L327.007 88.7235L320.689 99.8158L332.796 94.6693L333.077 94.8664C337.121 97.7025 341.877 99.2026 346.834 99.2026C360.065 99.2026 370.829 88.4388 370.829 75.2075C370.829 61.9763 360.068 51.2124 346.837 51.2124Z" fill="white"/>
<path d="M303.399 87.8257H282.714V89.0667H303.399V87.8257Z" fill="white"/>
<path d="M303.399 94.4431H282.714V95.6841H303.399V94.4431Z" fill="white"/>
<path d="M303.399 107.682H282.714V108.923H303.399V107.682Z" fill="white"/>
<path d="M303.399 114.303H282.714V115.544H303.399V114.303Z" fill="white"/>
<path d="M303.399 127.538H282.714V128.779H303.399V127.538Z" fill="white"/>
<path d="M303.399 134.159H282.714V135.4H303.399V134.159Z" fill="white"/>
<path d="M224.329 63.5568H223.088V35.2839C223.088 30.6083 219.284 26.805 214.609 26.805H166.41V25.564H214.605C219.967 25.564 224.325 29.9257 224.325 35.2839V63.5568H224.329Z" fill="white"/>
<path d="M71.733 91.1363H60.4582C58.5748 91.1363 57.0454 89.607 57.0454 87.7236C57.0454 85.8402 58.5748 84.3108 60.4582 84.3108H71.733V91.1363ZM60.4582 85.5481C59.261 85.5481 58.2864 86.5227 58.2864 87.7199C58.2864 88.9171 59.261 89.8917 60.4582 89.8917H70.4884V85.5481H60.4582Z" fill="white"/>
<path d="M71.733 102.51H60.4582C58.5748 102.51 57.0454 100.98 57.0454 99.0968C57.0454 97.2134 58.5748 95.6841 60.4582 95.6841H71.733V102.51ZM60.4582 96.9251C59.261 96.9251 58.2864 97.8996 58.2864 99.0968C58.2864 100.294 59.261 101.269 60.4582 101.269H70.4884V96.9251H60.4582Z" fill="white"/>
<path d="M71.733 113.887H60.4582C58.5748 113.887 57.0454 112.357 57.0454 110.474C57.0454 108.591 58.5748 107.061 60.4582 107.061H71.733V113.887ZM60.4582 108.302C59.261 108.302 58.2864 109.277 58.2864 110.474C58.2864 111.671 59.261 112.646 60.4582 112.646H70.4884V108.302H60.4582Z" fill="white"/>
<path d="M29.7436 134.367C19.593 134.367 11.333 126.107 11.333 115.956C11.333 105.806 19.593 97.5457 29.7436 97.5457C39.8943 97.5457 48.1542 105.806 48.1542 115.956C48.1542 126.107 39.8943 134.367 29.7436 134.367ZM29.7436 98.7867C20.2755 98.7867 12.574 106.488 12.574 115.956C12.574 125.424 20.2755 133.126 29.7436 133.126C39.2117 133.126 46.9132 125.424 46.9132 115.956C46.9132 106.488 39.2081 98.7867 29.7436 98.7867Z" fill="white"/>
<path d="M29.7435 125.264C24.6116 125.264 20.436 121.088 20.436 115.956C20.436 110.824 24.6116 106.649 29.7435 106.649C34.8754 106.649 39.051 110.824 39.051 115.956C39.051 121.088 34.8754 125.264 29.7435 125.264ZM29.7435 107.89C25.2942 107.89 21.677 111.507 21.677 115.956C21.677 120.406 25.2942 124.023 29.7435 124.023C34.1929 124.023 37.81 120.406 37.81 115.956C37.81 111.507 34.1892 107.89 29.7435 107.89Z" fill="white"/>
<path d="M50.4098 60.728H16.0925V62.7976H50.4098V60.728Z" fill="white"/>
<path d="M38.4597 71.2766H16.0925V73.3462H38.4597V71.2766Z" fill="white"/>
<path d="M274.867 37.1564H246.44V38.3974H274.867V37.1564Z" fill="white"/>
<path d="M250.55 32.6997L251.397 33.6086L246.915 37.7769L251.397 41.9415L250.55 42.8504L245.094 37.7769L250.55 32.6997Z" fill="white"/>
<path d="M273.52 48.2925H245.094V49.5335H273.52V48.2925Z" fill="white"/>
<path d="M269.406 53.9902L268.559 53.0813L273.042 48.9167L268.559 44.7484L269.406 43.8395L274.863 48.9167L269.406 53.9902Z" fill="white"/>
<path d="M201.812 157.738H65.9661C58.9946 157.738 53.3225 152.066 53.3225 145.094C53.3225 143.853 54.3299 142.846 55.5709 142.846H206.181V153.405H209.094C209.342 153.405 209.594 153.394 209.849 153.369L211.707 153.186L210.327 154.445C207.995 156.57 204.969 157.738 201.812 157.738ZM55.5709 144.087C55.0161 144.087 54.5635 144.539 54.5635 145.094C54.5635 151.383 59.6772 156.497 65.9661 156.497H201.812C204.046 156.497 206.203 155.847 208.046 154.643H204.944V144.083H55.5709V144.087Z" fill="white"/>
<path d="M206.181 144.087H182.394V115.336H206.181V144.087ZM183.635 142.846H204.94V116.577H183.635V142.846Z" fill="white"/>
<path d="M216.317 37.7695H189.015V39.8391H216.317V37.7695Z" fill="white"/>
<path d="M216.317 45.0076H189.015V47.0771H216.317V45.0076Z" fill="white"/>
<path d="M216.317 52.249H189.015V54.3186H216.317V52.249Z" fill="white"/>
<path d="M237.001 83.8945H209.904V85.756H237.001V83.8945Z" fill="white"/>
<path d="M237.001 92.1692H209.904V94.0307H237.001V92.1692Z" fill="white"/>
<path d="M237.001 100.444H209.904V102.305H237.001V100.444Z" fill="white"/>
<path d="M237.001 108.718H209.904V110.58H237.001V108.718Z" fill="white"/>
<path d="M237.001 116.989H209.904V118.851H237.001V116.989Z" fill="white"/>
<path d="M237.001 125.264H209.904V127.125H237.001V125.264Z" fill="white"/>
<path d="M240.932 81.2046C237.626 81.2046 234.936 78.5145 234.936 75.2076C234.936 71.9007 237.626 69.2107 240.932 69.2107C244.239 69.2107 246.929 71.9007 246.929 75.2076C246.929 78.5145 244.239 81.2046 240.932 81.2046ZM240.932 70.0356C238.082 70.0356 235.76 72.357 235.76 75.2076C235.76 78.0583 238.082 80.3797 240.932 80.3797C243.783 80.3797 246.105 78.0583 246.105 75.2076C246.105 72.357 243.783 70.0356 240.932 70.0356Z" fill="white"/>
<path d="M216.733 141.605C213.426 141.605 210.736 138.915 210.736 135.608C210.736 132.301 213.426 129.611 216.733 129.611C220.04 129.611 222.73 132.301 222.73 135.608C222.73 138.915 220.04 141.605 216.733 141.605ZM216.733 130.436C213.882 130.436 211.561 132.757 211.561 135.608C211.561 138.458 213.882 140.78 216.733 140.78C219.584 140.78 221.905 138.458 221.905 135.608C221.905 132.757 219.584 130.436 216.733 130.436Z" fill="white"/>
<path d="M183.635 140.572H75.8757C75.1895 140.572 74.6274 140.013 74.6274 139.324V78.27C74.6274 73.8425 78.23 70.2437 82.6538 70.2437H184.708C186.39 70.2437 188 70.7583 189.369 71.7365L189.628 71.9226V116.577H183.635V140.572ZM82.6574 71.4846C78.9162 71.4846 75.8721 74.5287 75.8721 78.27V139.324L182.397 139.331V115.336H188.391V72.5687C187.292 71.857 186.029 71.4846 184.711 71.4846H82.6574Z" fill="white"/>
<path d="M183.635 144.087H70.4922V75.4266C70.4922 69.718 75.135 65.0715 80.8472 65.0715H186.938C188.409 65.0715 189.836 65.3781 191.179 65.9804L191.924 66.3162L191.402 66.944C190.263 68.3127 189.635 70.0501 189.635 71.835V116.577H183.642V144.087H183.635ZM71.7332 142.846H182.394V115.336H188.387V71.835C188.387 70.0428 188.931 68.2908 189.935 66.8235C188.971 66.4877 187.964 66.3162 186.934 66.3162H80.8436C75.8175 66.3162 71.7332 70.4042 71.7332 75.4266V142.846Z" fill="white"/>
<path d="M261.613 154.734H207.422V154.646H204.94V71.835C204.94 67.6119 201.505 64.181 197.286 64.181C193.063 64.181 189.632 67.6156 189.632 71.835V116.062H188.391V71.835C188.391 66.9294 192.38 62.9399 197.286 62.9399C202.191 62.9399 206.181 66.9294 206.181 71.835V153.405H209.093C213.316 153.405 216.747 149.971 216.747 145.751V143.426H270.508V145.839C270.512 150.741 266.519 154.734 261.613 154.734ZM213.47 153.493H261.613C265.836 153.493 269.267 150.058 269.267 145.839V144.667H217.988V145.751C217.988 149.065 216.167 151.963 213.47 153.493Z" fill="white"/>
<path d="M324.068 65.7905H319.243V67.0315H324.068V65.7905Z" fill="white"/>
</svg>
