<svg width="356" height="166" viewBox="0 0 356 166" fill="none" xmlns="http://www.w3.org/2000/svg">
<path d="M178.05 163.005H84.1085C83.5215 163.005 82.9742 162.716 82.6393 162.235C82.3043 161.754 82.228 161.137 82.4369 160.59L104.188 102.81C104.45 102.117 105.12 101.653 105.859 101.653H199.801C200.388 101.653 200.935 101.942 201.27 102.422C201.605 102.903 201.681 103.52 201.472 104.067L179.721 161.847C179.463 162.537 178.789 163.005 178.05 163.005ZM84.7652 160.763H177.738L199.15 103.892H106.174L84.7652 160.763Z" fill="white"/>
<path d="M151.407 130.946H134.83C134.177 130.946 133.567 130.627 133.195 130.09C132.824 129.553 132.741 128.87 132.97 128.259L136.618 118.571C136.907 117.802 137.656 117.284 138.479 117.284H155.055C155.709 117.284 156.319 117.606 156.69 118.14C157.062 118.677 157.145 119.361 156.916 119.971L153.268 129.659C152.976 130.432 152.23 130.946 151.407 130.946ZM135.195 128.707H151.231L154.687 119.523H138.651L135.195 128.707Z" fill="white"/>
<path d="M80.1616 165.615H55.9001V160.763H80.1616V165.615ZM58.1356 163.376H77.9195V163.001H58.1356V163.376Z" fill="white"/>
<path d="M178.916 165.615H79.2032C78.4968 165.615 77.9197 165.041 77.9197 164.331V162.043C77.9197 161.336 78.4968 160.759 79.2032 160.759H178.916C179.622 160.759 180.199 161.333 180.199 162.043V164.331C180.196 165.041 179.622 165.615 178.916 165.615ZM80.1617 163.376H177.96V163.001H80.1617V163.376Z" fill="white"/>
<path d="M351.279 128.024H189.32L198.971 102.386C199.011 102.277 198.978 102.194 198.941 102.141C198.905 102.087 198.839 102.024 198.723 102.024H178.368V4.20268C178.368 2.02694 180.136 0.259155 182.312 0.259155H351.279C353.455 0.259155 355.223 2.03026 355.223 4.20268V124.08C355.223 126.256 353.455 128.024 351.279 128.024ZM192.557 125.785H351.279C352.218 125.785 352.984 125.019 352.984 124.08V4.20268C352.984 3.26406 352.218 2.49791 351.279 2.49791H182.312C181.373 2.49791 180.607 3.26406 180.607 4.20268V99.7857H198.723C199.545 99.7857 200.315 100.19 200.786 100.867C201.256 101.544 201.359 102.406 201.071 103.175L192.557 125.785Z" fill="white"/>
<path d="M354.102 5.5824H179.449V7.82115H354.102V5.5824Z" fill="white"/>
<path d="M222.748 111.865C218.016 111.865 214.162 108.014 214.162 103.278C214.162 98.5419 218.012 94.6913 222.748 94.6913C227.485 94.6913 231.335 98.5419 231.335 103.278C231.335 108.014 227.485 111.865 222.748 111.865ZM222.748 96.1871C218.838 96.1871 215.657 99.3678 215.657 103.278C215.657 107.188 218.838 110.369 222.748 110.369C226.659 110.369 229.839 107.188 229.839 103.278C229.839 99.3678 226.659 96.1871 222.748 96.1871Z" fill="white"/>
<path d="M242.161 111.865C237.428 111.865 233.574 108.014 233.574 103.278C233.574 98.5419 237.425 94.6913 242.161 94.6913C246.897 94.6913 250.748 98.5419 250.748 103.278C250.748 108.014 246.894 111.865 242.161 111.865ZM242.161 96.1871C238.25 96.1871 235.07 99.3678 235.07 103.278C235.07 107.188 238.25 110.369 242.161 110.369C246.071 110.369 249.252 107.188 249.252 103.278C249.252 99.3678 246.071 96.1871 242.161 96.1871Z" fill="white"/>
<path d="M225.203 105.46H219.505C219.236 105.46 219.017 105.242 219.017 104.973V101.328C219.017 101.059 219.236 100.84 219.505 100.84H225.203C225.471 100.84 225.69 101.059 225.69 101.328V104.973C225.69 105.242 225.471 105.46 225.203 105.46Z" fill="white"/>
<path d="M224.705 103.334C224.563 103.252 224.563 103.049 224.705 102.966L225.806 102.33L226.907 101.693C227.05 101.61 227.226 101.713 227.226 101.878V103.149V104.419C227.226 104.582 227.05 104.684 226.907 104.605L225.806 103.968L224.705 103.334Z" fill="white"/>
<path d="M348.822 110.804C349.001 110.887 349.001 111.089 348.822 111.172L347.439 111.809L346.056 112.445C345.877 112.528 345.654 112.425 345.654 112.26V110.989V109.719C345.654 109.557 345.877 109.454 346.056 109.533L347.439 110.17L348.822 110.804Z" fill="white"/>
<path d="M240.526 104.144V99.8287C240.526 99.5601 240.745 99.3412 241.013 99.3412H243.133C243.401 99.3412 243.62 99.5601 243.62 99.8287V104.144C243.62 104.412 243.401 104.631 243.133 104.631H241.013C240.745 104.628 240.526 104.412 240.526 104.144Z" fill="white"/>
<path d="M244.33 106.084H239.819C239.368 106.084 239.003 105.746 239.003 105.328V104.535C239.003 104.329 239.169 104.16 239.378 104.16C239.584 104.16 239.753 104.326 239.753 104.535V105.324C239.753 105.315 239.776 105.334 239.823 105.334H244.333C244.38 105.334 244.403 105.315 244.406 105.308L244.403 104.535C244.403 104.329 244.569 104.16 244.778 104.16C244.987 104.16 245.153 104.326 245.153 104.535V105.328C245.146 105.746 244.778 106.084 244.33 106.084Z" fill="white"/>
<path d="M242.144 107.965C241.939 107.965 241.77 107.799 241.77 107.59V105.706C241.77 105.5 241.935 105.331 242.144 105.331C242.353 105.331 242.519 105.497 242.519 105.706V107.59C242.519 107.799 242.35 107.965 242.144 107.965Z" fill="white"/>
<path d="M355.223 118.956H192.733L198.444 103.785C198.596 103.381 198.543 102.943 198.295 102.585C198.046 102.227 197.658 102.024 197.223 102.024H178.365V12.5739H355.219V118.956H355.223ZM195.97 116.717H352.984V14.8159H180.607V99.7856H197.227C198.387 99.7856 199.479 100.356 200.139 101.311C200.802 102.266 200.951 103.487 200.54 104.575L195.97 116.717Z" fill="white"/>
<path d="M177.24 163.18H80.0023C79.4153 163.18 78.868 162.892 78.5331 162.411C78.1981 161.93 78.1251 161.313 78.3307 160.766L100.851 100.943C101.11 100.25 101.783 99.7856 102.523 99.7856H199.761C200.348 99.7856 200.895 100.074 201.23 100.555C201.565 101.036 201.641 101.653 201.432 102.2L178.912 162.023C178.653 162.716 177.983 163.18 177.24 163.18ZM80.659 160.942H176.929L199.107 102.024H102.838L80.659 160.942Z" fill="white"/>
<path d="M283.218 13.6949H281.725V117.838H283.218V13.6949Z" fill="white"/>
<path d="M341.744 29.7476H289.566V17.058H341.744V29.7476ZM291.058 28.2517H340.251V18.5472H291.058V28.2517Z" fill="white"/>
<path d="M341.744 40.5699H289.566V31.6116H341.744V40.5699ZM291.058 39.0774H340.251V33.1041H291.058V39.0774Z" fill="white"/>
<path d="M348.118 54.3804H306.833V45.4221H348.118V54.3804ZM308.328 52.8879H346.626V46.9146H308.328V52.8879Z" fill="white"/>
<path d="M341.744 114.478H289.566V107.759H341.744V114.478ZM291.058 112.986H340.251V109.255H291.058V112.986Z" fill="white"/>
<path d="M336.268 20.786H293.914V22.2785H336.268V20.786Z" fill="white"/>
<path d="M268.661 39.4521H252.983V40.9446H268.661V39.4521Z" fill="white"/>
<path d="M268.661 42.812H252.983V44.3045H268.661V42.812Z" fill="white"/>
<path d="M268.661 46.1685H252.983V47.661H268.661V46.1685Z" fill="white"/>
<path d="M268.661 49.5282H252.983V51.0207H268.661V49.5282Z" fill="white"/>
<path d="M268.661 57.7402H252.983V59.2327H268.661V57.7402Z" fill="white"/>
<path d="M268.661 61.1001H252.983V62.5926H268.661V61.1001Z" fill="white"/>
<path d="M330.003 24.1458H293.914V25.6383H330.003V24.1458Z" fill="white"/>
<path d="M318.686 35.3462H293.831V36.8387H318.686V35.3462Z" fill="white"/>
<path d="M324.434 49.1567H311.327V50.6492H324.434V49.1567Z" fill="white"/>
<path d="M165.078 95.8388L147.497 78.8574H82.5032V29.7476H165.078V95.8388ZM84.7419 76.6187H148.399L162.836 90.562V31.9863H84.7419V76.6187Z" fill="white"/>
<path d="M52.547 142.179L46.5737 136.203L35.6453 135.702V111.862H69.1436V136.949H57.7774L52.547 142.179ZM37.884 133.566L47.5421 134.01L52.547 139.015L56.8487 134.713H66.9049V114.107H37.884V133.566Z" fill="white"/>
<path d="M25.7816 94.4027L16.9128 85.5339L0.55835 84.7811V49.5282H50.5372V86.6583H33.5227L25.7816 94.4027ZM2.7971 82.6418L17.8813 83.335L25.7816 91.2353L32.594 84.4228H48.2951V51.7703H2.7971V82.6418Z" fill="white"/>
<path d="M272.246 67.7666H247.905V56.6193L242.831 51.5448L248.645 45.7307L249.136 35.0145H272.246V67.7666ZM249.401 66.2741H270.754V36.507H250.565L250.111 46.3774L244.944 51.5448L249.398 55.9991V66.2741H249.401Z" fill="white"/>
<path d="M268.661 124.929C269.898 124.929 270.9 123.927 270.9 122.691C270.9 121.454 269.898 120.452 268.661 120.452C267.425 120.452 266.422 121.454 266.422 122.691C266.422 123.927 267.425 124.929 268.661 124.929Z" fill="white"/>
<path d="M185.423 4.73664C185.835 4.73664 186.169 4.40253 186.169 3.99039C186.169 3.57825 185.835 3.24414 185.423 3.24414C185.011 3.24414 184.677 3.57825 184.677 3.99039C184.677 4.40253 185.011 4.73664 185.423 4.73664Z" fill="white"/>
<path d="M188.408 4.73664C188.82 4.73664 189.154 4.40253 189.154 3.99039C189.154 3.57825 188.82 3.24414 188.408 3.24414C187.995 3.24414 187.661 3.57825 187.661 3.99039C187.661 4.40253 187.995 4.73664 188.408 4.73664Z" fill="white"/>
<path d="M191.396 4.73664C191.808 4.73664 192.142 4.40253 192.142 3.99039C192.142 3.57825 191.808 3.24414 191.396 3.24414C190.984 3.24414 190.65 3.57825 190.65 3.99039C190.65 4.40253 190.984 4.73664 191.396 4.73664Z" fill="white"/>
<path d="M283.593 89.096H178.332V12.5739H283.593V89.096ZM180.57 86.8572H281.354V14.8159H180.57V86.8572Z" fill="white"/>
<path d="M229.899 40.278L228.825 38.3112L241.209 31.5584L218.709 20.6035H218.576L196.096 31.5485L208.129 37.9828L207.074 39.9596L191.174 31.4523L218.062 18.3647H219.226L246.095 31.4457L229.899 40.278Z" fill="white"/>
<path d="M236.977 88.1607H199.661V71.6636C199.661 63.0369 206.404 55.8995 215.007 55.4152L216.191 55.3489V58.984C217.458 59.3886 218.855 59.3886 220.122 58.984V55.3622L221.283 55.402C230.085 55.7104 236.98 62.8512 236.98 71.6636V88.1607H236.977ZM201.9 85.9219H234.738V71.6669C234.738 64.4598 229.388 58.5495 222.36 57.7336V60.4798L221.7 60.7783C219.482 61.7799 216.828 61.7799 214.609 60.7783L213.949 60.4798V57.7734C207.104 58.7385 201.897 64.6289 201.897 71.6669V85.9219H201.9Z" fill="white"/>
<path d="M218.155 61.1995C216.958 61.1995 215.76 60.9906 214.669 60.576L213.949 60.3007V51.8167H222.36V60.3007L221.641 60.576C220.55 60.9939 219.352 61.1995 218.155 61.1995ZM216.191 58.7153C217.462 59.0503 218.855 59.0503 220.122 58.7153V54.0587H216.191V58.7153Z" fill="white"/>
<path d="M218.317 54.0554C213.677 54.0554 209.492 51.0406 207.571 46.437C207.213 46.5365 206.838 46.5863 206.46 46.5863C204.142 46.5863 202.255 44.6991 202.255 42.3807C202.255 40.0624 204.142 38.1752 206.46 38.1752C206.553 38.1752 206.646 38.1785 206.736 38.1852C207.877 32.1754 212.669 27.7841 218.314 27.7841C223.959 27.7841 228.752 32.1754 229.893 38.1852C229.985 38.1785 230.075 38.1752 230.168 38.1752C232.486 38.1752 234.373 40.0624 234.373 42.3807C234.373 44.6991 232.486 46.5863 230.168 46.5863C229.79 46.5863 229.415 46.5365 229.057 46.437C227.143 51.0439 222.961 54.0554 218.317 54.0554ZM208.825 43.1403L209.28 44.5863C210.643 48.9113 214.274 51.8167 218.317 51.8167C222.36 51.8167 225.992 48.9113 227.355 44.5863L227.81 43.1403L229.057 43.9993C229.385 44.2248 229.77 44.3442 230.171 44.3442C231.256 44.3442 232.138 43.462 232.138 42.3774C232.138 41.2929 231.256 40.4106 230.171 40.4106C229.903 40.4106 229.644 40.4637 229.402 40.5665L228.002 41.1635L227.85 39.6511C227.289 34.1587 223.193 30.0162 218.317 30.0162C213.442 30.0162 209.346 34.1587 208.785 39.6511L208.633 41.1635L207.233 40.5665C206.988 40.4637 206.729 40.4106 206.464 40.4106C205.379 40.4106 204.497 41.2929 204.497 42.3774C204.497 43.462 205.379 44.3442 206.464 44.3442C206.862 44.3442 207.246 44.2248 207.578 43.9993L208.825 43.1403Z" fill="white"/>
<path d="M146.973 39.4521H91.7302V43.5582H146.973V39.4521Z" fill="white"/>
<path d="M44.325 56.6226H6.99927V59.7668H44.325V56.6226Z" fill="white"/>
<path d="M32.7565 62.8877H6.99927V66.0319H32.7565V62.8877Z" fill="white"/>
<path d="M40.219 69.153H6.99927V72.2971H40.219V69.153Z" fill="white"/>
<path d="M57.0179 118.21H40.5938V120.946H57.0179V118.21Z" fill="white"/>
<path d="M61.1239 125.553H40.5938V128.289H61.1239V125.553Z" fill="white"/>
<path d="M139.882 48.0356H91.7302V52.1417H139.882V48.0356Z" fill="white"/>
<path d="M149.961 56.6226H91.7302V60.7286H149.961V56.6226Z" fill="white"/>
</svg>
