<svg width="310" height="159" viewBox="0 0 310 159" fill="none" xmlns="http://www.w3.org/2000/svg">
<path d="M225.542 58.4673C221.52 58.4673 218.246 55.0208 218.246 50.786C218.246 46.5513 221.52 43.1047 225.542 43.1047C229.564 43.1047 232.838 46.5513 232.838 50.786C232.835 55.0236 229.564 58.4673 225.542 58.4673ZM225.542 45.2715C222.652 45.2715 220.302 47.7463 220.302 50.7888C220.302 53.8314 222.652 56.3062 225.542 56.3062C228.432 56.3062 230.783 53.8314 230.783 50.7888C230.783 47.7463 228.429 45.2715 225.542 45.2715Z" fill="white"/>
<path d="M196.871 107.756C192.338 107.756 188.649 103.874 188.649 99.0999C188.649 94.3256 192.336 90.444 196.871 90.444C201.405 90.444 205.092 94.3256 205.092 99.0999C205.092 103.874 201.403 107.756 196.871 107.756ZM196.871 92.6108C193.471 92.6108 190.704 95.5234 190.704 99.1027C190.704 102.682 193.471 105.595 196.871 105.595C200.27 105.595 203.037 102.682 203.037 99.1027C203.037 95.5234 200.27 92.6108 196.871 92.6108Z" fill="white"/>
<path d="M196.798 104.968C193.729 104.968 191.233 102.337 191.233 99.1084C191.233 95.8794 193.731 93.2493 196.798 93.2493C199.868 93.2493 202.364 95.8794 202.364 99.1084C202.364 102.337 199.865 104.968 196.798 104.968ZM196.798 95.4104C194.864 95.4104 193.289 97.0687 193.289 99.1056C193.289 101.142 194.864 102.801 196.798 102.801C198.733 102.801 200.308 101.142 200.308 99.1056C200.308 97.0687 198.733 95.4104 196.798 95.4104Z" fill="white"/>
<path d="M268.685 117.079C264.185 117.079 260.525 113.225 260.525 108.488C260.525 103.75 264.185 99.8966 268.685 99.8966C273.185 99.8966 276.845 103.75 276.845 108.488C276.845 113.225 273.185 117.079 268.685 117.079ZM268.685 102.061C265.32 102.061 262.58 104.945 262.58 108.488C262.58 112.03 265.32 114.915 268.685 114.915C272.05 114.915 274.79 112.03 274.79 108.488C274.79 104.942 272.052 102.061 268.685 102.061Z" fill="white"/>
<path d="M214.822 52.42L194.041 91.0103L195.829 92.0775L216.61 53.4873L214.822 52.42Z" fill="white"/>
<path d="M228.083 60.0288L203.214 98.4846L204.913 99.7025L229.782 61.2467L228.083 60.0288Z" fill="white"/>
<path d="M165.087 100.007L160.098 97.9925L161.891 86.6387L159.999 86.2855L158.263 95.1477L156.25 94.7098L158.392 83.791L164.255 84.8815L164.011 86.4324L166.86 87.0794L165.087 100.007ZM162.401 96.6054L163.42 97.0179L164.55 88.7687L163.67 88.571L162.401 96.6054Z" fill="white"/>
<path d="M165.638 88.3983L165.332 90.5383L191.714 94.7176L192.02 92.5776L165.638 88.3983Z" fill="white"/>
<path d="M164.754 95.5254L164.273 97.6292L190.613 104.307L191.095 102.203L164.754 95.5254Z" fill="white"/>
<path d="M178.007 124.056C177.019 124.056 176.075 123.689 175.316 123.003L120.447 73.2874L124.053 68.4058L143.413 83.0932L142.048 83.3559L142.08 83.4548L143.542 83.192L155.18 92.0231L155.29 92.3254C155.727 93.5374 156.806 94.3538 158.035 94.4075L158.343 94.4216L182.912 113.061C183.841 113.767 184.455 114.858 184.597 116.053C184.739 117.251 184.399 118.466 183.663 119.389L181.187 122.5C180.47 123.398 179.464 123.946 178.353 124.042C178.238 124.051 178.122 124.056 178.007 124.056ZM123.27 72.9908L176.657 121.364C177.084 121.748 177.626 121.935 178.184 121.887C178.742 121.839 179.249 121.562 179.609 121.11L182.086 117.999C182.461 117.528 182.628 116.932 182.555 116.321C182.483 115.711 182.182 115.174 181.707 114.816L157.624 96.5432C155.816 96.3426 154.246 95.1504 153.492 93.4074L143.038 85.4747L140.684 85.8984L139.764 82.9915L124.458 71.3777L123.27 72.9908Z" fill="white"/>
<path d="M154.359 90.3678L152.625 83.7459L140.684 85.9014L139.345 81.6723L156.551 78.3783L158.397 87.0003L156.988 88.1699L156.878 88.2236C156.436 88.4383 156.044 88.7632 155.741 89.1671L155.668 89.266L154.359 90.3678ZM154.115 81.2824L155.491 86.5568C155.625 86.4692 155.765 86.3901 155.907 86.3167L156.111 86.1472L154.984 80.8813L142.048 83.356L142.08 83.4549L154.115 81.2824Z" fill="white"/>
<path d="M158.166 96.5772C158.107 96.5772 158.046 96.5744 157.987 96.5688L157.946 96.5659C155.896 96.4755 154.101 95.111 153.369 93.094C153.143 92.4724 153.028 91.8227 153.028 91.1673C153.028 89.9469 153.409 88.7914 154.128 87.8253C154.63 87.1557 155.285 86.6105 156.02 86.2545C156.701 85.924 157.423 85.7573 158.164 85.7573C160.997 85.7573 163.302 88.184 163.302 91.1673C163.302 94.1505 161 96.5772 158.166 96.5772ZM158.166 87.9241C157.724 87.9241 157.292 88.0258 156.881 88.2236C156.438 88.4383 156.047 88.7632 155.743 89.1672C155.311 89.7463 155.083 90.4384 155.083 91.1701C155.083 91.56 155.153 91.9498 155.287 92.3256C155.725 93.5375 156.803 94.3539 158.032 94.4076L158.166 94.4161C159.862 94.4161 161.247 92.9612 161.247 91.1701C161.247 89.379 159.865 87.9241 158.166 87.9241Z" fill="white"/>
<path d="M151.686 104.292L138.049 95.5856L139.471 91.8452L150.189 97.4247L149.279 99.3655L141.978 95.563L151.286 101.507L151.96 100.71L153.497 102.145L151.686 104.292Z" fill="white"/>
<path d="M309.219 156.44H224.616V155.358C224.616 152.685 226.683 150.51 229.221 150.51H304.612C307.15 150.51 309.217 152.685 309.217 155.358V156.44H309.219ZM226.887 154.276H306.946C306.549 153.332 305.653 152.671 304.612 152.671H229.221C228.18 152.674 227.284 153.332 226.887 154.276Z" fill="white"/>
<path d="M260.922 156.44H55.7515V139.131H242.155V141.295C240.883 141.295 239.847 142.498 239.847 143.981V152.115H260.925V156.44H260.922ZM57.8069 154.276H258.869H237.791V143.979C237.791 142.987 238.063 142.063 238.524 141.292H57.8069V154.276Z" fill="white"/>
<path d="M298.258 154.276H236.262V143.979C236.262 141.306 238.328 139.131 240.867 139.131H293.653C296.192 139.131 298.258 141.306 298.258 143.979V154.276ZM238.317 152.112H296.205V143.979C296.205 142.498 295.062 141.292 293.653 141.292H240.867C239.46 141.292 238.315 142.495 238.315 143.979V152.112H238.317Z" fill="white"/>
<path d="M51.0878 154.276H6.43718C4.9211 154.276 3.68677 152.954 3.68677 151.329V100.606C3.68677 98.9813 4.9211 97.6592 6.43718 97.6592H51.0878C52.6039 97.6592 53.8383 98.9813 53.8383 100.606V151.329C53.8383 152.954 52.6039 154.276 51.0878 154.276ZM6.43718 99.8232C6.03468 99.8232 5.70732 100.173 5.70732 100.606V151.329C5.70732 151.762 6.03468 152.112 6.43718 152.112H51.0878C51.4903 152.112 51.8177 151.762 51.8177 151.329V100.606C51.8177 100.173 51.4903 99.8232 51.0878 99.8232H6.43718Z" fill="white"/>
<path d="M47.4707 150.31H10.9371C9.39423 150.31 8.13843 148.987 8.13843 147.363V117.915C8.13843 116.29 9.39423 114.968 10.9371 114.968H47.4707C49.0136 114.968 50.2694 116.29 50.2694 117.915V147.363C50.2694 148.987 49.0136 150.31 47.4707 150.31ZM10.9371 117.132C10.5266 117.132 10.1939 117.483 10.1939 117.915V147.363C10.1939 147.795 10.5266 148.146 10.9371 148.146H47.4707C47.8813 148.146 48.214 147.795 48.214 147.363V117.915C48.214 117.483 47.8813 117.132 47.4707 117.132H10.9371Z" fill="white"/>
<path d="M44.1328 101.818H9.16626V103.982H44.1328V101.818Z" fill="white"/>
<path d="M33.6383 107.397H9.16626V109.561H33.6383V107.397Z" fill="white"/>
<path d="M44.1328 119.296H14.2244V121.46H44.1328V119.296Z" fill="white"/>
<path d="M20.3531 124.887H14.2244V127.051H20.3531V124.887Z" fill="white"/>
<path d="M15.456 94.4132H13.3201V51.8765C13.3201 49.2238 15.4506 47.0654 18.0669 47.0654H37.937V49.2294H18.0669C16.6259 49.2294 15.4533 50.4159 15.4533 51.8765V94.4132H15.456Z" fill="white"/>
<path d="M19.4434 94.4132H17.3879V56.2864C17.3879 53.8456 19.218 51.8624 21.4666 51.8624H37.9396V54.0264H21.4666C20.3503 54.0264 19.4434 55.0406 19.4434 56.2864V94.4132Z" fill="white"/>
<path d="M37.9397 56.3033H23.4067V58.4673H37.9397V56.3033Z" fill="white"/>
<path d="M37.9397 60.1567H28.1777V62.3207H37.9397V60.1567Z" fill="white"/>
<path d="M37.9368 68.8098H21.4021V70.9738H37.9368V68.8098Z" fill="white"/>
<path d="M37.9368 72.7791H21.4021V74.943H37.9368V72.7791Z" fill="white"/>
<path d="M37.9368 76.7454H21.4021V78.9094H37.9368V76.7454Z" fill="white"/>
<path d="M37.9368 80.7118H21.4021V82.8758H37.9368V80.7118Z" fill="white"/>
<path d="M226.95 64.3274L225.298 65.6152L256.659 110.2L258.31 108.912L226.95 64.3274Z" fill="white"/>
<path d="M236.354 50.0906L234.777 51.4779L271.612 97.8978L273.189 96.5105L236.354 50.0906Z" fill="white"/>
<path d="M268.8 121.46C266.248 121.46 263.798 120.644 261.713 119.098C258.429 116.666 256.47 112.694 256.47 108.476C256.47 101.318 262.001 95.4951 268.8 95.4951C275.6 95.4951 281.13 101.318 281.13 108.476C281.13 112.694 279.169 116.666 275.887 119.098C273.802 120.644 271.352 121.46 268.8 121.46ZM268.8 97.6591C263.133 97.6591 258.526 102.513 258.526 108.476C258.526 111.991 260.16 115.299 262.897 117.327C264.633 118.612 266.675 119.293 268.8 119.293C270.925 119.293 272.967 118.612 274.703 117.327C277.44 115.299 279.075 111.991 279.075 108.476C279.077 102.513 274.467 97.6591 268.8 97.6591Z" fill="white"/>
<path d="M262.384 119.559C262.234 119.463 262.086 119.364 261.942 119.259C261.904 119.234 261.869 119.209 261.832 119.18C261.832 119.18 261.832 119.18 261.829 119.18L262.993 117.398C263.023 117.42 263.052 117.44 263.085 117.463C263.205 117.547 263.329 117.632 263.452 117.711C263.452 117.711 263.455 117.711 263.455 117.714L262.384 119.559Z" fill="white"/>
<path d="M262.602 119.694C262.564 119.672 262.526 119.649 262.489 119.627C262.454 119.604 262.416 119.581 262.382 119.559L263.455 117.714C263.484 117.734 263.517 117.754 263.549 117.773C263.578 117.79 263.608 117.81 263.637 117.827L262.602 119.694Z" fill="white"/>
<path d="M295.518 141.295H240.373V138.038C240.373 135.458 242.367 133.362 244.814 133.362H291.077C293.527 133.362 295.518 135.461 295.518 138.038V141.295ZM242.426 139.131H293.463V138.038C293.463 136.653 292.392 135.526 291.077 135.526H244.814C243.499 135.526 242.428 136.653 242.428 138.038V139.131H242.426Z" fill="white"/>
<path d="M282.501 135.523H253.046V122.537C253.046 119.556 255.349 117.132 258.18 117.132H262.631L262.897 117.327C262.94 117.355 262.967 117.375 262.996 117.395C263.146 117.505 263.299 117.61 263.458 117.711C263.519 117.751 263.578 117.788 263.637 117.824C265.205 118.788 266.989 119.296 268.803 119.296C270.928 119.296 272.97 118.615 274.706 117.33L274.972 117.132H277.368C280.199 117.132 282.501 119.556 282.501 122.537V135.523ZM255.099 133.362H280.446V122.539C280.446 120.751 279.064 119.299 277.368 119.299H275.613C273.59 120.714 271.242 121.463 268.8 121.463C266.624 121.463 264.48 120.853 262.599 119.697C262.527 119.652 262.454 119.607 262.382 119.562C262.25 119.477 262.121 119.389 261.993 119.302H258.177C256.478 119.302 255.099 120.757 255.099 122.542V133.362Z" fill="white"/>
<path d="M104.39 80.5224V22.4678C104.39 22.0949 104.344 21.7079 104.253 21.3124L103.807 19.3942L105.584 20.0326C107.494 20.7191 109.34 21.6147 111.077 22.6882L111.584 23.0017V77.1154L111.077 77.429C109.391 78.4715 107.602 79.3444 105.755 80.0224L104.39 80.5224ZM106.445 22.6853V77.4347C107.502 76.9798 108.533 76.4572 109.528 75.8696V24.2476C108.533 23.6628 107.502 23.1402 106.445 22.6853Z" fill="white"/>
<path d="M99.769 129.393H59.3446C58.2847 129.393 57.2623 129.133 56.3124 128.622L55.7516 128.319V96.2777C55.7516 95.8455 55.4189 95.4952 55.0083 95.4952H52.6685V22.4678C52.6685 18.5918 55.6631 15.4391 59.3446 15.4391H89.9748L84.5304 17.5381C71.6208 22.5102 62.9483 35.5816 62.9483 50.06C62.9483 69.1488 77.6986 84.6781 95.8299 84.6781C98.9882 84.6781 102.12 84.2035 105.13 83.2712L106.448 82.8616V122.364C106.445 126.24 103.451 129.393 99.769 129.393ZM57.807 126.952C58.3008 127.138 58.816 127.232 59.3446 127.232H99.769C102.315 127.232 104.39 125.051 104.39 122.367V85.7262C101.599 86.4663 98.7252 86.8421 95.8272 86.8421C76.5635 86.8421 60.8902 70.341 60.8902 50.06C60.8902 36.4066 68.1513 23.9312 79.373 17.6059H59.3446C56.7981 17.6059 54.7239 19.7868 54.7239 22.4706V93.334H55.0083C56.5512 93.334 57.807 94.6561 57.807 96.2805V126.952Z" fill="white"/>
<path d="M246.467 135.165H55.7515V96.2778C55.7515 95.8455 55.4188 95.4952 55.0082 95.4952H43.0781V16.1652C43.0781 10.7948 47.2963 6.42444 52.4832 6.42444H244.994C250.18 6.42444 254.399 10.7948 254.399 16.1652V76.1832L234.55 51.1703V50.7776C234.55 45.6078 230.555 41.4013 225.644 41.4013C220.734 41.4013 216.738 45.6078 216.738 50.7776C216.738 55.9475 220.734 60.1539 225.644 60.1539C226.691 60.1539 227.713 59.9647 228.687 59.5918L231.749 58.4194L227.402 64.9537L254.396 103.332V126.814C254.396 131.418 250.838 135.165 246.467 135.165ZM57.8069 133.001H246.467C249.706 133.001 252.343 130.226 252.343 126.814V104.047L224.871 64.9904L226.683 62.2671C226.339 62.301 225.993 62.3179 225.644 62.3179C219.601 62.3179 214.683 57.1424 214.683 50.7776C214.683 44.4156 219.599 39.2373 225.644 39.2373C231.561 39.2373 236.396 44.1981 236.597 50.3765L252.341 70.2167V16.1652C252.341 11.9869 249.043 8.58842 244.991 8.58842H52.4805C48.4287 8.58842 45.1309 11.9869 45.1309 16.1652V93.3313H55.0055C56.5485 93.3313 57.8043 94.6534 57.8043 96.2778V133.001H57.8069Z" fill="white"/>
<path d="M242.426 141.295H55.7516V96.2777C55.7516 95.8455 55.4188 95.4952 55.0083 95.4952H36.9119V10.8739C36.9119 5.04014 41.4199 0.294067 46.9609 0.294067H254.297C259.838 0.294067 264.346 5.04014 264.346 10.8739V88.7264L234.55 51.1731V50.7804C234.55 45.6106 230.555 41.4041 225.644 41.4041C220.734 41.4041 216.738 45.6106 216.738 50.7804C216.738 55.9502 220.734 60.1567 225.644 60.1567C226.691 60.1567 227.713 59.9675 228.687 59.5946L231.749 58.4222L227.402 64.9565L257.691 108.021L258.4 107.434L258.563 109.431C258.829 112.652 260.444 115.556 262.991 117.401L262.301 118.46V119.302H258.174C256.476 119.302 255.096 120.757 255.096 122.542V135.529H244.808C243.494 135.529 242.423 136.656 242.423 138.04V141.295H242.426ZM57.807 139.131H240.373V138.038C240.373 135.458 242.367 133.362 244.814 133.362H253.046V122.539C253.046 119.559 255.349 117.135 258.18 117.135H259.615C257.941 115.172 256.867 112.711 256.564 110.05L224.871 64.9904L226.683 62.267C226.339 62.3009 225.993 62.3179 225.644 62.3179C219.601 62.3179 214.683 57.1424 214.683 50.7776C214.683 44.4156 219.599 39.2373 225.644 39.2373C231.561 39.2373 236.396 44.1981 236.598 50.3764L262.293 82.7599V10.8739C262.293 6.23231 258.705 2.45805 254.299 2.45805H46.9609C42.5522 2.45805 38.9673 6.23514 38.9673 10.8739V93.3312H55.0083C56.5512 93.3312 57.807 94.6533 57.807 96.2777V139.131Z" fill="white"/>
<path d="M55.0083 158.604H3.40248C1.85956 158.604 0.60376 157.282 0.60376 155.657V96.2777C0.60376 94.6533 1.85956 93.3312 3.40248 93.3312H55.0083C56.5513 93.3312 57.8071 94.6533 57.8071 96.2777V155.657C57.8071 157.282 56.5513 158.604 55.0083 158.604ZM3.40248 95.4952C2.99193 95.4952 2.65919 95.8455 2.65919 96.2777V155.657C2.65919 156.09 2.99193 156.44 3.40248 156.44H55.0083C55.4189 156.44 55.7516 156.09 55.7516 155.657V96.2777C55.7516 95.8455 55.4189 95.4952 55.0083 95.4952H3.40248Z" fill="white"/>
<path d="M95.8272 81.7937C79.2066 81.7937 65.6853 67.5583 65.6853 50.06C65.6853 32.5617 79.2066 18.3263 95.8272 18.3263C99.1518 18.3263 102.434 18.9026 105.584 20.0354L106.115 20.2275L106.249 20.8039C106.378 21.366 106.445 21.9254 106.445 22.4706V79.771L105.756 80.0252C102.557 81.1976 99.2162 81.7937 95.8272 81.7937ZM95.8272 20.4875C80.339 20.4875 67.7407 33.7538 67.7407 50.0572C67.7407 66.3605 80.3417 79.6269 95.8272 79.6269C98.744 79.6269 101.621 79.1551 104.39 78.22V22.4678C104.39 22.2757 104.376 22.0836 104.355 21.8858C101.591 20.9592 98.7252 20.4875 95.8272 20.4875Z" fill="white"/>
<path d="M240.204 129.393H116.202C112.52 129.393 109.526 126.24 109.526 122.364V81.5451L110.105 81.2513C121.405 75.5051 128.706 63.2614 128.706 50.06C128.706 37.3134 122.078 25.629 111.412 19.5721L110.293 18.9365L111.117 17.9195C112.389 16.3459 114.243 15.4419 116.199 15.4419H240.201C243.883 15.4419 246.877 18.5946 246.877 22.4706V66.7136L234.548 51.173V50.7804C234.548 45.6105 230.552 41.4041 225.642 41.4041C220.731 41.4041 216.736 45.6105 216.736 50.7804C216.736 55.9502 220.731 60.1567 225.642 60.1567C226.688 60.1567 227.71 59.9674 228.684 59.5945L231.746 58.4221L227.399 64.9564L246.875 92.6475V122.367C246.88 126.24 243.886 129.393 240.204 129.393ZM111.581 82.8983V122.367C111.581 125.048 113.653 127.232 116.202 127.232H240.204C242.75 127.232 244.825 125.051 244.825 122.367V93.3594L224.871 64.9903L226.683 62.267C226.339 62.3009 225.993 62.3178 225.644 62.3178C219.601 62.3178 214.683 57.1424 214.683 50.7775C214.683 44.4155 219.599 39.2372 225.644 39.2372C231.561 39.2372 236.396 44.198 236.598 50.3764L244.825 60.7443V22.465C244.825 19.784 242.753 17.6002 240.204 17.6002H116.202C115.284 17.6002 114.399 17.8884 113.647 18.4138C124.241 25.0329 130.762 37.0224 130.762 50.0572C130.762 57.1085 128.862 63.9592 125.266 69.8692C121.885 75.4317 117.162 79.9235 111.581 82.8983Z" fill="white"/>
<path d="M95.8271 86.8421C76.5635 86.8421 60.8901 70.341 60.8901 50.06C60.8901 34.6777 70.1047 20.7897 83.8219 15.5069C87.6617 14.0266 91.7002 13.278 95.8271 13.278C101.607 13.278 107.333 14.795 112.391 17.6681C123.726 24.1035 130.764 36.5168 130.764 50.06C130.764 57.1113 128.864 63.9621 125.269 69.872C121.77 75.6267 116.835 80.2343 111.004 83.2006C109.311 84.0622 107.529 84.7855 105.71 85.3476C102.506 86.3392 99.1813 86.8421 95.8271 86.8421ZM95.8271 15.4391C91.9417 15.4391 88.1421 16.1454 84.5276 17.5381C71.6181 22.5102 62.9456 35.5817 62.9456 50.06C62.9456 69.1488 77.6959 84.6781 95.8271 84.6781C98.9854 84.6781 102.117 84.2035 105.128 83.2712C106.84 82.7401 108.514 82.0621 110.108 81.2513C121.407 75.5052 128.709 63.2614 128.709 50.06C128.709 37.3134 122.081 25.629 111.415 19.5722C106.657 16.8686 101.266 15.4391 95.8271 15.4391ZM95.8271 81.7937C79.2066 81.7937 65.6853 67.5583 65.6853 50.06C65.6853 32.5617 79.2066 18.3263 95.8271 18.3263C99.1518 18.3263 102.434 18.9026 105.584 20.0355C107.494 20.7219 109.34 21.6175 111.077 22.691C120.262 28.375 125.969 38.8644 125.969 50.06C125.969 61.2557 120.262 71.745 111.077 77.429C109.391 78.4715 107.602 79.3444 105.755 80.0224C102.557 81.1977 99.2162 81.7937 95.8271 81.7937ZM95.8271 20.4875C80.3389 20.4875 67.7407 33.7539 67.7407 50.0572C67.7407 66.3605 80.3416 79.6269 95.8271 79.6269C98.9854 79.6269 102.098 79.0704 105.079 77.9771C106.797 77.3471 108.466 76.5335 110.035 75.5617C118.595 70.2647 123.914 60.4901 123.914 50.0572C123.914 39.6243 118.595 29.8497 110.035 24.5527C108.42 23.5526 106.697 22.7221 104.918 22.0808C101.983 21.0242 98.9237 20.4875 95.8271 20.4875Z" fill="white"/>
<path d="M109.528 78.3867V21.7305L111.077 22.6882C120.262 28.3722 125.969 38.8615 125.969 50.0572C125.969 61.2528 120.262 71.7422 111.077 77.4262L109.528 78.3867ZM111.581 25.5867V74.5333C119.231 69.0584 123.911 59.8488 123.911 50.06C123.911 40.2712 119.231 31.0616 111.581 25.5867Z" fill="white"/>
<path d="M225.644 62.3207C219.601 62.3207 214.683 57.1452 214.683 50.7804C214.683 44.4184 219.598 39.2401 225.644 39.2401C231.687 39.2401 236.605 44.4156 236.605 50.7804C236.603 57.1424 231.687 62.3207 225.644 62.3207ZM225.644 41.4041C220.734 41.4041 216.738 45.6106 216.738 50.7804C216.738 55.9502 220.734 60.1567 225.644 60.1567C230.555 60.1567 234.55 55.9502 234.55 50.7804C234.55 45.6106 230.555 41.4041 225.644 41.4041Z" fill="white"/>
</svg>
