<svg width="43" height="30" viewBox="0 0 43 30" fill="none" xmlns="http://www.w3.org/2000/svg">
<path d="M31.9672 0.700439C26.2133 0.700439 21.5449 3.89243 21.5449 8.9404C21.5449 3.88863 16.8803 0.700439 11.1225 0.700439C5.36482 0.700439 0.700195 4.79575 0.700195 9.84751V29.3069C4.08575 28.2024 7.60415 27.6482 11.1225 27.6482C14.6409 27.6482 18.1593 28.2024 21.5449 29.3069C24.9305 28.2024 28.4488 27.6482 31.9672 27.6482C35.4856 27.6482 39.004 28.2024 42.3896 29.3069V9.84751C42.3896 4.79575 37.7212 0.700439 31.9672 0.700439ZM16.421 21.9702C13.0544 20.8733 9.42597 20.8733 6.05939 21.9702V12.3108C6.05939 9.80576 8.37842 7.77139 11.2402 7.77139C14.102 7.77139 16.421 9.80197 16.421 12.3108V21.9702ZM37.2657 21.9702C33.8991 20.8733 30.2707 20.8733 26.9041 21.9702V12.3108C26.9041 9.80576 29.2231 7.77139 32.0849 7.77139C34.9467 7.77139 37.2657 9.80197 37.2657 12.3108V21.9702Z" fill="white"/>
</svg>
