<svg width="46" height="36" viewBox="0 0 46 36" fill="none" xmlns="http://www.w3.org/2000/svg">
<path d="M13.15 8.77124C10.2883 8.77124 7.96924 10.8018 7.96924 13.3106V22.9701C11.3358 21.8732 14.9643 21.8732 18.3309 22.9701V13.3106C18.3309 10.8056 16.0118 8.77124 13.15 8.77124Z" fill="#2900FF"/>
<path d="M33.9909 8.77124C31.1291 8.77124 28.8101 10.8018 28.8101 13.3106V22.9701C32.1766 21.8732 35.8051 21.8732 39.1717 22.9701V13.3106C39.1755 10.8056 36.8527 8.77124 33.9909 8.77124Z" fill="#2900FF"/>
<path d="M42.3675 3.1009C40.0903 1.10069 37.0729 0 33.8771 0C30.6509 0 27.6677 0.914707 25.4815 2.57333C24.6845 3.17681 24.0089 3.86758 23.4585 4.63047C22.9082 3.86758 22.2288 3.17681 21.4356 2.57333C19.2456 0.914707 16.2661 0 13.04 0C9.8442 0 6.8268 1.10069 4.54952 3.1009C2.20013 5.15424 0.909668 7.90596 0.909668 10.8474V11.2801V30.3106V32.6562V33.9732C0.909668 35.0929 1.81678 36 2.93645 36H43.973C45.0927 36 45.9998 35.0929 45.9998 33.9732V32.6562V30.3106V11.2763V10.8436C45.9998 7.90596 44.7094 5.15424 42.3675 3.1009ZM20.2779 32.2577C20.2779 32.5841 20.0123 32.8498 19.6858 32.8498H6.37894C6.05253 32.8498 5.78684 32.5841 5.78684 32.2577C10.497 30.7205 15.5716 30.7205 20.2779 32.2577ZM41.2289 32.2159C41.2289 32.5423 40.9632 32.808 40.6368 32.808H27.3299C27.0035 32.808 26.7378 32.5423 26.7378 32.2159C31.4442 30.6788 36.5187 30.6788 41.2289 32.2159ZM44.2994 30.3068C40.9139 29.2023 37.3955 28.6482 33.8771 28.6482C30.3587 28.6482 26.8403 29.2023 23.4547 30.3068C20.0692 29.2023 16.5508 28.6482 13.0324 28.6482C9.51399 28.6482 5.99559 29.2023 2.61004 30.3068V10.8474C2.61004 10.1718 2.69354 9.51144 2.85295 8.8776C2.85674 8.87 2.85674 8.85862 2.86054 8.85103C2.8909 8.72578 2.92506 8.60432 2.96302 8.48287C2.96681 8.47148 2.97061 8.46389 2.97061 8.4525C3.00856 8.33105 3.05031 8.2058 3.09206 8.08434C3.09206 8.08055 3.09586 8.07675 3.09586 8.07296C3.18695 7.82246 3.28943 7.57955 3.40329 7.33664C3.40329 7.33284 3.40709 7.32904 3.40709 7.32525C3.46402 7.20759 3.52095 7.09373 3.58168 6.97986C3.58547 6.97227 3.59306 6.96089 3.59686 6.95329C3.65759 6.84323 3.71831 6.73316 3.78284 6.62309C3.78663 6.6155 3.79422 6.60411 3.79802 6.59652C3.86634 6.48645 3.93465 6.37638 4.00677 6.26631C4.00677 6.26631 4.00677 6.26631 4.00677 6.26252C4.15479 6.03859 4.31041 5.82604 4.47741 5.61349C4.485 5.6059 4.48879 5.59831 4.49638 5.59072C4.57609 5.49204 4.65579 5.39336 4.74309 5.29847C4.75068 5.28708 4.76207 5.27949 4.76966 5.26811C4.85316 5.17322 4.94045 5.07833 5.02775 4.98724C5.03534 4.97965 5.04293 4.97206 5.05052 4.96447C5.2365 4.7709 5.43007 4.58492 5.63123 4.40654C5.63502 4.40274 5.63882 4.39895 5.64261 4.39515C5.7413 4.30785 5.83998 4.22435 5.94246 4.14085C5.95384 4.13326 5.96523 4.12188 5.97662 4.11428C6.0753 4.03458 6.17778 3.95488 6.27646 3.87897C6.28784 3.86758 6.30303 3.85999 6.31821 3.8486C6.42069 3.77269 6.52696 3.69678 6.63323 3.62467C6.64462 3.61708 6.65221 3.61328 6.6636 3.60569C6.88753 3.45387 7.11526 3.30965 7.35057 3.17681C7.36196 3.16921 7.37335 3.16542 7.38473 3.15783C7.4986 3.0933 7.61246 3.03258 7.72633 2.97185C7.7453 2.96426 7.76049 2.95287 7.77946 2.94528C7.89333 2.88835 8.01099 2.83142 8.12485 2.77449C8.14383 2.76689 8.15901 2.7593 8.17799 2.75171C8.29944 2.69478 8.4171 2.64164 8.54235 2.5923C8.55374 2.58851 8.56133 2.58471 8.57271 2.58092C8.69797 2.52778 8.82322 2.47844 8.95226 2.43289C8.95606 2.4291 8.96365 2.4291 8.96744 2.4253C9.09269 2.37976 9.22174 2.33421 9.35079 2.29246C9.36976 2.28487 9.38494 2.28108 9.40392 2.27348C9.52917 2.23173 9.65442 2.19378 9.77967 2.15962C9.80245 2.15203 9.82142 2.14823 9.8442 2.14064C9.96945 2.10648 10.0985 2.07232 10.2275 2.03817C10.2465 2.03437 10.2655 2.03057 10.2845 2.02298C10.4173 1.99262 10.5539 1.96226 10.6906 1.93189C10.6982 1.93189 10.7058 1.9281 10.7134 1.9281C10.85 1.90153 10.9866 1.87496 11.1233 1.85598C11.1385 1.85219 11.1498 1.85219 11.165 1.84839C11.3017 1.82562 11.4383 1.80664 11.5749 1.79146C11.5977 1.78766 11.6205 1.78766 11.6432 1.78387C11.7761 1.76869 11.9127 1.75351 12.0494 1.74212C12.0721 1.73832 12.0987 1.73832 12.1215 1.73832C12.2581 1.72694 12.3985 1.71935 12.5352 1.71175C12.5542 1.71175 12.5731 1.71175 12.5921 1.71175C12.7401 1.70796 12.8844 1.70416 13.0362 1.70416C13.1994 1.70416 13.3626 1.70796 13.5258 1.71175C13.5372 1.71175 13.5448 1.71175 13.5562 1.71175C13.7118 1.71555 13.8674 1.72314 14.023 1.73453C14.0382 1.73453 14.0534 1.73453 14.0686 1.73832C14.2204 1.74971 14.3684 1.7611 14.5164 1.77628C14.5354 1.77628 14.5544 1.78007 14.5733 1.78007C14.7176 1.79526 14.8618 1.81044 15.006 1.83321C15.0288 1.83701 15.0478 1.83701 15.0706 1.8408C15.211 1.85978 15.3514 1.88255 15.4919 1.90532C15.5146 1.90912 15.5336 1.91291 15.5564 1.91671C15.6968 1.93948 15.8334 1.96605 15.9701 1.99641C15.9929 2.00021 16.0118 2.00401 16.0346 2.0116C16.1712 2.04196 16.3079 2.07232 16.4407 2.10269C16.4597 2.10648 16.4787 2.11407 16.4976 2.11787C16.6343 2.15203 16.7671 2.18619 16.9 2.22414C16.9151 2.22794 16.9341 2.23553 16.9493 2.23933C17.0859 2.27728 17.2188 2.31903 17.3516 2.36458C17.363 2.36837 17.3744 2.37217 17.3858 2.37596C17.5224 2.42151 17.6591 2.46705 17.7919 2.51639C17.7995 2.52019 17.8033 2.52019 17.8109 2.52398C17.9475 2.57712 18.0842 2.63026 18.217 2.68339H18.2208C18.3536 2.74033 18.4827 2.79726 18.6117 2.85799C18.6193 2.86178 18.6269 2.86558 18.6383 2.86937C18.7635 2.9263 18.885 2.98703 19.0027 3.05155C19.014 3.05915 19.0254 3.06294 19.0406 3.07053C19.1583 3.13126 19.2721 3.19578 19.386 3.26031C19.4012 3.2679 19.4164 3.27549 19.4277 3.28308C19.5378 3.3476 19.6479 3.41212 19.7542 3.48044C19.7693 3.49183 19.7845 3.49942 19.7997 3.51081C19.906 3.57912 20.0085 3.64744 20.1147 3.71956C20.1299 3.73094 20.1451 3.74233 20.1603 3.74992C20.2628 3.82203 20.3614 3.89415 20.4601 3.97006C20.4753 3.98144 20.4867 3.99283 20.5019 4.00422C20.6005 4.08013 20.6954 4.15983 20.7903 4.23954C20.8017 4.25092 20.8131 4.25851 20.8283 4.2699C20.9232 4.3534 21.018 4.4331 21.1053 4.5204C21.1167 4.52799 21.1243 4.53938 21.1319 4.54697C21.223 4.63426 21.3141 4.72536 21.4014 4.81645C21.409 4.82404 21.4128 4.82783 21.4204 4.83542C21.5115 4.93031 21.5988 5.0252 21.6823 5.12388L21.6861 5.12767C21.7733 5.23015 21.8568 5.33263 21.9403 5.4389C21.9403 5.4389 21.9403 5.4427 21.9441 5.4427C22.0238 5.54518 22.0998 5.65145 22.1757 5.75772C22.1795 5.76531 22.1833 5.76911 22.1908 5.7767C22.263 5.87918 22.3313 5.98545 22.3958 6.09172C22.4034 6.10311 22.4072 6.1107 22.4148 6.12209C22.4793 6.22836 22.54 6.33463 22.597 6.44091C22.6046 6.45229 22.6121 6.46747 22.6159 6.47886C22.6729 6.58513 22.726 6.6952 22.7791 6.80527C22.7867 6.82045 22.7943 6.83563 22.7981 6.85082C22.8475 6.96088 22.8968 7.07095 22.9424 7.18482C22.9499 7.2 22.9537 7.21518 22.9613 7.23036C23.0069 7.34423 23.0486 7.45809 23.0866 7.57575C23.0904 7.59093 23.098 7.60611 23.1018 7.6213C23.1397 7.73896 23.1739 7.85662 23.208 7.97807C23.2118 7.99325 23.2156 8.00464 23.2194 8.01982C23.2498 8.14128 23.2801 8.26653 23.3067 8.39178C23.3105 8.40316 23.3105 8.41455 23.3143 8.42593C23.3409 8.55498 23.3636 8.68403 23.3826 8.81687C23.3826 8.82446 23.3826 8.83205 23.3864 8.83964C23.4396 9.19641 23.4661 9.56837 23.4661 9.94792C23.4661 9.56837 23.4927 9.20021 23.5458 8.83964C23.5458 8.83205 23.5458 8.82446 23.5496 8.81687C23.5686 8.68403 23.5914 8.55498 23.6179 8.42593C23.6217 8.41455 23.6217 8.40316 23.6255 8.39178C23.6521 8.26653 23.6825 8.14128 23.7128 8.01982C23.7166 8.00464 23.7204 7.99325 23.7242 7.97807C23.7584 7.85662 23.7925 7.73896 23.8305 7.6213C23.8343 7.60611 23.8419 7.59093 23.8457 7.57575C23.8836 7.45809 23.9254 7.34423 23.9709 7.23036C23.9785 7.21518 23.9823 7.2 23.9899 7.18482C24.0354 7.07095 24.081 6.96088 24.1341 6.85082C24.1417 6.83563 24.1493 6.82045 24.1531 6.80527C24.2062 6.6952 24.2594 6.58513 24.3163 6.47886C24.3239 6.46747 24.3315 6.45229 24.3353 6.44091C24.3922 6.33463 24.4529 6.22456 24.5175 6.12209C24.5251 6.1107 24.5289 6.10311 24.5364 6.09172C24.601 5.98545 24.6693 5.87918 24.7414 5.7767C24.7452 5.76911 24.749 5.76531 24.7566 5.75772C24.8287 5.65145 24.9084 5.54518 24.9881 5.4427C24.9881 5.4427 24.9881 5.4389 24.9919 5.4389C25.0716 5.33263 25.1589 5.23015 25.2462 5.12767L25.25 5.12388C25.3335 5.0252 25.4246 4.93031 25.5119 4.83542C25.5195 4.82783 25.5233 4.82404 25.5309 4.81645C25.6182 4.72536 25.7092 4.63426 25.8003 4.54697C25.8079 4.53938 25.8193 4.52799 25.8269 4.5204C25.918 4.4369 26.0091 4.3534 26.104 4.2699C26.1154 4.25851 26.1267 4.25092 26.1419 4.23954C26.2368 4.15983 26.3317 4.08013 26.4304 4.00422C26.4456 3.99283 26.457 3.98144 26.4721 3.97006C26.5708 3.89415 26.6695 3.82203 26.772 3.74992C26.7872 3.73853 26.8023 3.72715 26.8175 3.71956C26.92 3.64744 27.0263 3.57912 27.1325 3.51081C27.1477 3.49942 27.1629 3.49183 27.1781 3.48044C27.2844 3.41212 27.3944 3.3476 27.5045 3.28308C27.5197 3.27549 27.5349 3.2679 27.5463 3.26031C27.6601 3.19578 27.774 3.13126 27.8916 3.07053C27.903 3.06294 27.9144 3.05915 27.9296 3.05155C28.0511 2.99083 28.1725 2.9301 28.294 2.86937C28.3015 2.86558 28.3091 2.86178 28.3205 2.85799C28.4496 2.79726 28.5786 2.74033 28.7115 2.68339H28.7153C28.8481 2.62646 28.9847 2.57333 29.1214 2.52398C29.129 2.52019 29.1328 2.52019 29.1403 2.51639C29.2732 2.46705 29.4098 2.42151 29.5465 2.37596C29.5578 2.37217 29.5692 2.36837 29.5806 2.36458C29.7135 2.32283 29.8463 2.28108 29.9829 2.23933C29.9981 2.23553 30.0171 2.22794 30.0323 2.22414C30.1651 2.18619 30.298 2.15203 30.4346 2.11787C30.4536 2.11407 30.4726 2.10648 30.4915 2.10269C30.6244 2.06853 30.761 2.03817 30.8976 2.0116C30.9204 2.0078 30.9394 2.00401 30.9622 1.99641C31.0988 1.96985 31.2354 1.94328 31.3759 1.91671C31.3987 1.91291 31.4176 1.90912 31.4404 1.90532C31.5808 1.88255 31.7213 1.85978 31.8617 1.8408C31.8845 1.83701 31.9034 1.83701 31.9262 1.83321C32.0704 1.81423 32.2147 1.79526 32.3589 1.78007C32.3779 1.77628 32.3969 1.77628 32.4158 1.77628C32.5639 1.7611 32.7119 1.74971 32.8637 1.73832C32.8789 1.73832 32.8941 1.73832 32.9092 1.73453C33.0649 1.72314 33.2205 1.71555 33.3761 1.71175C33.3875 1.71175 33.3951 1.71175 33.4065 1.71175C33.5697 1.70796 33.7329 1.70416 33.8961 1.70416C34.0441 1.70416 34.1921 1.70796 34.3401 1.71175C34.3591 1.71175 34.3781 1.71175 34.3971 1.71175C34.5375 1.71935 34.6741 1.72694 34.8108 1.73832C34.8335 1.73832 34.8601 1.74212 34.8829 1.74212C35.0195 1.75351 35.1524 1.76489 35.289 1.78387C35.3118 1.78766 35.3345 1.78766 35.3573 1.79146C35.494 1.80664 35.6306 1.82562 35.7672 1.84839C35.7824 1.85219 35.7938 1.85219 35.809 1.85598C35.9456 1.87876 36.0823 1.90153 36.2189 1.9281C36.2265 1.9281 36.2341 1.93189 36.2417 1.93189C36.3783 1.95846 36.5111 1.98882 36.6478 2.02298C36.6668 2.02678 36.6857 2.03057 36.7047 2.03817C36.8338 2.06853 36.9628 2.10269 37.0881 2.14064C37.1108 2.14823 37.1298 2.15203 37.1526 2.15962C37.2778 2.19757 37.4069 2.23553 37.5283 2.27348C37.5473 2.28108 37.5625 2.28487 37.5815 2.29246C37.7105 2.33421 37.8396 2.37976 37.9648 2.4253C37.9686 2.4291 37.9762 2.4291 37.98 2.43289C38.109 2.48223 38.2343 2.53158 38.3595 2.58092C38.3709 2.58471 38.3785 2.58851 38.3899 2.5923C38.5114 2.64544 38.6328 2.69858 38.7543 2.75171C38.7732 2.7593 38.7884 2.76689 38.8074 2.77449C38.9251 2.82762 39.0389 2.88455 39.1528 2.94528C39.1718 2.95287 39.1869 2.96426 39.2059 2.97185C39.3198 3.03258 39.4375 3.0933 39.5475 3.15783C39.5589 3.16542 39.5703 3.16921 39.5817 3.17681C39.817 3.31344 40.0485 3.45387 40.2687 3.60569C40.28 3.61328 40.2876 3.61708 40.299 3.62467C40.4053 3.69678 40.5116 3.77269 40.614 3.8486C40.6292 3.85999 40.6406 3.86758 40.6558 3.87897C40.7583 3.95488 40.857 4.03458 40.9556 4.11428C40.967 4.12188 40.9784 4.13326 40.9898 4.14085C41.0923 4.22435 41.191 4.30785 41.2896 4.39515C41.2934 4.39895 41.2972 4.40274 41.301 4.40654C41.5022 4.58492 41.6958 4.7709 41.8817 4.96447C41.8893 4.97206 41.8969 4.97965 41.9045 4.98724C41.9918 5.07833 42.0791 5.17322 42.1626 5.26811C42.1702 5.27949 42.1816 5.28708 42.1892 5.29847C42.2727 5.39336 42.3562 5.49204 42.4359 5.59072C42.4435 5.59831 42.4473 5.6059 42.4548 5.61349C42.6218 5.82225 42.7775 6.03859 42.9255 6.26252C42.9255 6.26252 42.9255 6.26252 42.9255 6.26631C42.9976 6.37638 43.0659 6.48645 43.1342 6.59652C43.138 6.60411 43.1456 6.6155 43.1494 6.62309C43.2139 6.73316 43.2785 6.84323 43.3354 6.95329C43.3392 6.96089 43.3468 6.97227 43.3506 6.97986C43.4113 7.09373 43.4682 7.20759 43.5252 7.32525C43.5252 7.32904 43.529 7.33284 43.529 7.33664C43.6428 7.57575 43.7453 7.82246 43.8364 8.07296C43.8364 8.07675 43.8402 8.08055 43.8402 8.08434C43.8857 8.2058 43.9237 8.32725 43.9616 8.4525C43.9654 8.46389 43.9692 8.47148 43.9692 8.48287C44.0072 8.60432 44.0413 8.72957 44.0717 8.85103C44.0755 8.85862 44.0755 8.87 44.0793 8.8776C44.2387 9.51144 44.3222 10.1718 44.3222 10.8474V30.3068H44.2994Z" fill="#2900FF"/>
<path d="M20.2787 32.2576C15.5685 30.7204 10.494 30.7204 5.7876 32.2576C5.7876 32.584 6.05328 32.8497 6.37969 32.8497H19.6904C20.0168 32.8497 20.2787 32.584 20.2787 32.2576Z" fill="white"/>
<path d="M41.2289 32.2159C36.5187 30.6787 31.4442 30.6787 26.7378 32.2159C26.7378 32.5423 27.0035 32.808 27.3299 32.808H40.6406C40.9632 32.808 41.2289 32.5423 41.2289 32.2159Z" fill="white"/>
<path d="M33.8769 1.70044C28.123 1.70044 23.4546 4.89243 23.4546 9.9404C23.4546 4.88863 18.7899 1.70044 13.0322 1.70044C7.27449 1.70044 2.60986 5.79575 2.60986 10.8475V30.3069C5.99542 29.2024 9.51382 28.6482 13.0322 28.6482C16.5506 28.6482 20.069 29.2024 23.4546 30.3069C26.8401 29.2024 30.3585 28.6482 33.8769 28.6482C37.3953 28.6482 40.9137 29.2024 44.2993 30.3069V10.8475C44.2993 5.79575 39.6308 1.70044 33.8769 1.70044ZM18.3307 22.9702C14.9641 21.8733 11.3356 21.8733 7.96906 22.9702V13.3108C7.96906 10.8058 10.2881 8.77139 13.1499 8.77139C16.0117 8.77139 18.3307 10.802 18.3307 13.3108V22.9702ZM39.1754 22.9702C35.8088 21.8733 32.1803 21.8733 28.8138 22.9702V13.3108C28.8138 10.8058 31.1328 8.77139 33.9946 8.77139C36.8564 8.77139 39.1754 10.802 39.1754 13.3108V22.9702Z" fill="white"/>
</svg>
