<svg width="16" height="17" viewBox="0 0 16 17" fill="none" xmlns="http://www.w3.org/2000/svg">
<path d="M2.66675 13.4999C2.66675 13.0579 2.84234 12.634 3.1549 12.3214C3.46746 12.0088 3.89139 11.8333 4.33341 11.8333H13.3334" stroke="white" stroke-linecap="round" stroke-linejoin="round"/>
<path d="M2.66675 13.4999C2.66675 13.0579 2.84234 12.634 3.1549 12.3214C3.46746 12.0088 3.89139 11.8333 4.33341 11.8333H13.3334" stroke="black" stroke-opacity="0.8" stroke-linecap="round" stroke-linejoin="round"/>
<path d="M4.33341 1.83325H13.3334V15.1666H4.33341C3.89139 15.1666 3.46746 14.991 3.1549 14.6784C2.84234 14.3659 2.66675 13.9419 2.66675 13.4999V3.49992C2.66675 3.05789 2.84234 2.63397 3.1549 2.32141C3.46746 2.00885 3.89139 1.83325 4.33341 1.83325V1.83325Z" stroke="white" stroke-linecap="round" stroke-linejoin="round"/>
<path d="M4.33341 1.83325H13.3334V15.1666H4.33341C3.89139 15.1666 3.46746 14.991 3.1549 14.6784C2.84234 14.3659 2.66675 13.9419 2.66675 13.4999V3.49992C2.66675 3.05789 2.84234 2.63397 3.1549 2.32141C3.46746 2.00885 3.89139 1.83325 4.33341 1.83325V1.83325Z" stroke="black" stroke-opacity="0.8" stroke-linecap="round" stroke-linejoin="round"/>
</svg>
