<svg width="43" height="30" viewBox="0 0 43 30" fill="none" xmlns="http://www.w3.org/2000/svg">
<path d="M31.8769 0.700439C26.123 0.700439 21.4546 3.89243 21.4546 8.9404C21.4546 3.88863 16.7899 0.700439 11.0322 0.700439C5.27449 0.700439 0.609863 4.79575 0.609863 9.84751V29.3069C3.99542 28.2024 7.51382 27.6482 11.0322 27.6482C14.5506 27.6482 18.069 28.2024 21.4546 29.3069C24.8401 28.2024 28.3585 27.6482 31.8769 27.6482C35.3953 27.6482 38.9137 28.2024 42.2993 29.3069V9.84751C42.2993 4.79575 37.6308 0.700439 31.8769 0.700439ZM16.3307 21.9702C12.9641 20.8733 9.33564 20.8733 5.96906 21.9702V12.3108C5.96906 9.80576 8.28809 7.77139 11.1499 7.77139C14.0117 7.77139 16.3307 9.80197 16.3307 12.3108V21.9702ZM37.1754 21.9702C33.8088 20.8733 30.1803 20.8733 26.8138 21.9702V12.3108C26.8138 9.80576 29.1328 7.77139 31.9946 7.77139C34.8564 7.77139 37.1754 9.80197 37.1754 12.3108V21.9702Z" fill="white"/>
</svg>
