<svg width="20" height="8" viewBox="0 0 20 8" fill="none" xmlns="http://www.w3.org/2000/svg">
<path d="M0.807579 3.64645C0.612317 3.84171 0.612317 4.15829 0.807579 4.35355L3.98956 7.53553C4.18482 7.7308 4.5014 7.7308 4.69667 7.53553C4.89193 7.34027 4.89193 7.02369 4.69667 6.82843L1.86824 4L4.69667 1.17157C4.89193 0.976311 4.89193 0.659728 4.69667 0.464466C4.5014 0.269204 4.18482 0.269204 3.98956 0.464466L0.807579 3.64645ZM19.1611 3.5H1.16113V4.5H19.1611V3.5Z" fill="white"/>
<path d="M0.807579 3.64645C0.612317 3.84171 0.612317 4.15829 0.807579 4.35355L3.98956 7.53553C4.18482 7.7308 4.5014 7.7308 4.69667 7.53553C4.89193 7.34027 4.89193 7.02369 4.69667 6.82843L1.86824 4L4.69667 1.17157C4.89193 0.976311 4.89193 0.659728 4.69667 0.464466C4.5014 0.269204 4.18482 0.269204 3.98956 0.464466L0.807579 3.64645ZM19.1611 3.5H1.16113V4.5H19.1611V3.5Z" fill="black" fill-opacity="0.6"/>
</svg>
