<?xml version="1.0" standalone="no"?>
<!DOCTYPE svg PUBLIC "-//W3C//DTD SVG 20010904//EN"
 "http://www.w3.org/TR/2001/REC-SVG-20010904/DTD/svg10.dtd">
<svg version="1.0" xmlns="http://www.w3.org/2000/svg"
 width="512.000000pt" height="512.000000pt" viewBox="0 0 512.000000 512.000000"
 preserveAspectRatio="xMidYMid meet">

<g transform="translate(0.000000,512.000000) scale(0.100000,-0.100000)"
fill="#000000" stroke="none">
<path d="M1090 4491 c-80 -18 -116 -44 -263 -189 -177 -176 -201 -215 -200
-332 1 -135 -17 -113 572 -705 588 -591 573 -572 573 -705 0 -133 15 -114
-573 -705 -590 -592 -572 -571 -572 -705 0 -119 23 -157 205 -336 173 -171
206 -189 328 -187 125 2 111 -10 695 572 591 588 572 573 705 573 133 0 114
15 705 -573 584 -582 570 -570 695 -572 125 -2 154 15 336 197 182 182 199
211 197 336 -2 125 10 111 -572 695 -588 591 -573 572 -573 705 0 133 -15 114
573 705 582 584 570 570 572 695 2 122 -16 155 -187 328 -179 182 -217 205
-336 205 -134 0 -113 18 -705 -572 -591 -588 -572 -573 -705 -573 -133 0 -114
-15 -705 573 -410 408 -540 532 -575 548 -52 23 -140 33 -190 22z"/>
</g>
</svg>
