<?xml version="1.0" standalone="no"?>
<!DOCTYPE svg PUBLIC "-//W3C//DTD SVG 20010904//EN"
 "http://www.w3.org/TR/2001/REC-SVG-20010904/DTD/svg10.dtd">
<svg version="1.0" xmlns="http://www.w3.org/2000/svg"
 width="512.000000pt" height="512.000000pt" viewBox="0 0 512.000000 512.000000"
 preserveAspectRatio="xMidYMid meet">

<g transform="translate(-51.20000,583.200000) scale(0.120000,-0.120000)"
fill="#000000" stroke="none">
<path d="M1040 3927 c-68 -23 -97 -106 -66 -182 30 -70 -89 -65 1586 -65 1704
0 1565 -7 1602 77 33 74 -4 151 -83 173 -53 15 -2994 12 -3039 -3z"/>
<path d="M1040 2807 c-68 -23 -97 -106 -66 -182 30 -70 -89 -65 1586 -65 1704
0 1565 -7 1602 77 33 74 -4 151 -83 173 -53 15 -2994 12 -3039 -3z"/>
<path d="M1040 1687 c-68 -23 -97 -106 -66 -182 30 -70 -89 -65 1586 -65 1704
0 1565 -7 1602 77 33 74 -4 151 -83 173 -53 15 -2994 12 -3039 -3z"/>
</g>
</svg>
