<?xml version="1.0" standalone="no"?>
<!DOCTYPE svg PUBLIC "-//W3C//DTD SVG 20010904//EN"
 "http://www.w3.org/TR/2001/REC-SVG-20010904/DTD/svg10.dtd">
<svg version="1.0" xmlns="http://www.w3.org/2000/svg"
 width="512.000000pt" height="512.000000pt" viewBox="0 0 512.000000 512.000000"
 preserveAspectRatio="xMidYMid meet">

<g transform="translate(0.000000,512.000000) scale(0.100000,-0.100000)"
fill="#000000" stroke="none">
<path d="M584 4500 c-121 -18 -240 -106 -292 -218 -24 -50 -27 -69 -27 -162 0
-95 3 -111 28 -162 38 -77 107 -144 187 -182 l65 -31 1995 -3 c1804 -2 1999
-1 2049 14 115 33 212 125 253 241 28 81 23 205 -14 283 -55 120 -166 201
-299 220 -77 11 -3869 11 -3945 0z"/>
<path d="M528 2951 c-107 -35 -188 -105 -235 -206 -25 -53 -28 -71 -28 -160 0
-87 3 -107 27 -157 31 -68 94 -138 153 -172 98 -58 55 -56 1345 -56 950 0
1196 3 1241 14 195 45 325 241 290 433 -24 131 -99 230 -219 286 l-67 32
-1225 2 c-1161 2 -1228 1 -1282 -16z"/>
<path d="M520 1415 c-108 -34 -214 -143 -247 -254 -24 -83 -15 -202 22 -277
37 -75 104 -142 180 -180 l60 -29 2025 0 2025 0 57 27 c74 34 146 107 184 183
26 55 29 69 29 165 0 96 -3 110 -29 165 -38 76 -105 143 -181 181 l-60 29
-2010 2 c-1700 1 -2017 0 -2055 -12z"/>
</g>
</svg>
