<svg width="101" height="89" viewBox="0 0 101 89" fill="none" xmlns="http://www.w3.org/2000/svg">
<path d="M14.2665 37.6176C14.3675 34.7361 15.731 33.1551 18.66 33.1296C18.5085 32.4156 18.3822 31.8036 18.2812 31.1916C17.7257 27.8766 18.3317 24.7656 19.9225 21.8331C20.1497 21.4251 20.276 20.8896 20.2255 20.4306C20.0235 17.3706 21.2102 15.0756 23.811 13.5201C24.2907 13.2396 24.4927 12.9336 24.5937 12.3726C25.5027 7.37455 29.7447 4.41655 34.719 5.25805C35.0472 5.30905 35.5017 5.15605 35.729 4.92655C40.1477 0.336555 45.3745 -0.453946 51.0557 2.65705C52.5455 1.40755 54.2625 0.693555 56.2572 0.821055C58.3025 0.948555 59.9437 1.86655 61.282 3.42205C61.5345 3.70255 61.9637 3.98305 62.3172 4.00855C69.3367 4.16155 74.8917 9.18505 76.2805 15.3816C76.3562 15.6876 76.7097 16.0446 77.0127 16.1466C80.8255 17.5746 82.5677 20.8641 81.6587 24.9186C81.583 25.2246 81.6082 25.5816 81.7345 25.8621C83.0222 28.8711 83.1485 29.5851 82.8455 33.1296C85.522 33.2571 86.6835 34.8891 86.8097 37.5921C87.7945 37.5921 88.7035 37.5921 89.6377 37.5921C92.0365 37.6176 93.1475 38.5866 93.602 40.9581C96.026 53.5041 98.4247 66.0501 100.874 78.6216C101.631 82.5486 99.4095 85.3536 95.42 85.3536C84.108 85.3536 72.796 85.3536 61.484 85.3536C60.7012 85.3536 60.1457 85.5066 59.5902 86.1186C58.4035 87.3936 56.8127 87.9036 55.1462 88.2861C51.5355 89.0766 47.8995 89.0766 44.3897 87.8271C43.1777 87.3936 42.1677 86.4246 41.0315 85.7616C40.6527 85.5576 40.1982 85.4046 39.769 85.4046C28.3812 85.3791 17.0187 85.4046 5.63099 85.3791C2.80299 85.3791 0.656738 83.9256 0.176988 81.4521C-0.0502623 80.3301 0.101238 79.106 0.303238 77.9585C2.65149 65.5655 5.07549 53.1726 7.44899 40.8051C7.85299 38.6886 9.06499 37.6686 11.186 37.6176C12.196 37.6176 13.1555 37.6176 14.2665 37.6176ZM11.6657 74.1591C24.0887 70.1301 36.3855 70.1301 48.8085 74.1591C48.8085 73.6491 48.8085 73.2665 48.8085 72.8585C48.8085 66.254 48.8085 59.6496 48.8085 53.0451C48.8085 51.6426 49.4145 50.8776 50.475 50.8521C51.5607 50.8266 52.2172 51.6426 52.2425 53.0706C52.2425 53.3001 52.2425 53.5296 52.2425 53.7846C52.2425 60.1596 52.2425 66.5346 52.2425 72.8841C52.2425 73.2666 52.2425 73.6491 52.2425 74.1591C64.6907 70.1301 76.9622 70.13 89.3347 74.1335C89.3095 73.8275 89.3095 73.6491 89.259 73.4451C88.2995 67.6311 87.34 61.8171 86.3805 56.0031C85.3705 49.8066 84.3605 43.5846 83.3252 37.3881C83.2747 37.1076 83.0475 36.7251 82.8202 36.6741C82.3405 36.5721 81.6587 36.4701 81.3557 36.7506C80.876 37.1586 80.5477 37.8216 80.371 38.4591C79.5125 41.5446 77.8965 44.0946 75.4472 46.1346C75.2452 46.3131 75.0685 46.4916 74.917 46.6191C75.3967 47.7921 75.9522 48.8376 76.23 49.9596C76.4572 50.9031 76.5835 51.9741 76.4067 52.9176C76.028 54.9321 74.715 56.2581 72.7707 56.8446C70.776 57.4311 68.958 56.8956 67.544 55.3911C66.2815 54.0141 64.7917 53.1216 63.0495 52.5096C61.7617 52.0506 60.474 51.5151 59.3377 50.8011C58.3025 50.1381 57.0147 49.2966 56.6107 48.2511C55.828 46.1601 54.3635 45.7266 52.5455 45.5736C52.192 45.5481 51.7627 45.6246 51.485 45.8286C46.0562 49.9851 39.3145 48.8376 35.4765 43.0746C35.325 42.8196 34.8452 42.6411 34.5422 42.6666C28.76 43.5846 24.114 41.6721 20.6295 36.9546C19.9225 35.9856 19.1397 36.6741 18.357 36.6486C17.7005 36.6231 17.751 37.1586 17.6752 37.6176C16.5137 44.7321 15.327 51.8211 14.1655 58.9356C13.3575 63.9591 12.5242 68.9571 11.6657 74.1591ZM72.796 16.0701C72.3162 11.8116 67.1652 7.40005 62.898 7.62955C62.8727 7.75705 62.8222 7.85905 62.797 7.98655C62.5697 9.08305 61.989 9.61855 61.08 9.59305C60.171 9.56755 59.565 8.98105 59.4135 7.91005C59.3882 7.70605 59.363 7.50205 59.3377 7.29805C59.0852 5.56405 57.6207 4.28905 55.8785 4.26355C54.0605 4.23805 52.5707 5.48755 52.293 7.27255C52.2425 7.57855 52.2425 7.88455 52.1667 8.16505C51.9647 9.08305 51.2577 9.64406 50.374 9.56756C49.4902 9.49106 48.859 8.82805 48.8337 7.88455C48.8337 7.37455 48.8337 6.83905 49.0105 6.38005C49.263 5.71705 49.0105 5.41105 48.4297 5.13055C45.4755 3.60055 41.688 4.05955 39.163 6.32905C38.0015 7.34905 37.1935 8.59855 36.7137 10.0776C36.2592 11.4801 35.4512 12.0411 34.416 11.7096C33.406 11.3781 33.0777 10.5111 33.4565 9.13405C33.507 8.98105 33.4817 8.82805 33.507 8.64955C30.9315 8.21605 28.0782 10.3836 28.154 12.6786C28.3812 12.7296 28.6085 12.7551 28.8105 12.8061C30.4265 13.2141 31.7647 14.0556 32.7495 15.4071C33.3302 16.1976 33.204 17.1666 32.497 17.7531C31.8152 18.3396 30.9315 18.2886 30.2245 17.6766C30.0477 17.5236 29.9215 17.3196 29.7447 17.1666C28.6337 16.0191 27.1187 15.7386 25.7047 16.3761C24.316 17.0136 23.508 18.3906 23.609 19.9716C23.6847 21.2466 24.3917 22.1391 25.3765 22.8786C26.2097 23.4906 26.3612 24.5106 25.8057 25.2756C25.2502 26.0406 24.2907 26.1936 23.407 25.6326C23.0535 25.4031 22.7252 25.1226 22.3717 24.8676C20.68 27.6981 21.3617 32.5176 23.8362 35.5776C26.336 38.6631 30.9315 40.2441 34.012 39.0966C34.0372 37.6176 34.0372 37.6176 32.7747 37.2096C30.5022 36.4701 28.7852 34.3026 28.659 31.9821C28.5832 30.6816 29.1387 29.8656 30.174 29.7891C31.2345 29.6871 31.891 30.3501 32.0677 31.6506C32.2445 33.0276 32.9767 33.7671 34.4412 33.9966C34.5675 33.6651 34.719 33.3336 34.8705 33.0021C35.0472 32.6451 35.1987 32.2626 35.426 31.9311C35.9815 31.0386 36.9157 30.7581 37.749 31.2171C38.5822 31.6761 38.86 32.5941 38.4307 33.5631C38.3297 33.7671 38.2035 33.9711 38.1025 34.2006C37.345 35.8071 37.1682 37.4901 37.6227 39.2241C39.0872 44.8341 45.829 46.6701 49.9195 42.5646C50.6265 41.8506 51.3335 41.4936 52.3182 41.8506C55.0452 42.8706 57.7722 42.9216 60.575 42.1566C61.7112 41.8506 62.6202 42.3351 62.8727 43.3041C63.1252 44.2731 62.5697 45.1401 61.4335 45.4716C60.7012 45.6756 59.969 45.8286 59.1357 46.0326C60.1205 47.5626 61.5092 48.2766 62.9737 48.8121C65.625 49.7811 68.2005 50.8266 70.0942 53.0961C70.6497 53.7591 71.5335 53.8101 72.291 53.3256C73.0232 52.8666 73.3262 52.1271 73.0737 51.3111C72.7707 50.2911 72.3162 49.3221 71.9122 48.3276C70.8265 48.6081 69.867 48.8886 68.9075 49.0926C67.8975 49.2966 67.0642 48.7356 66.8622 47.7921C66.6602 46.8486 67.1652 46.0581 68.1752 45.7521C68.4277 45.6756 68.7055 45.6246 68.958 45.5736C71.4325 44.9616 73.4525 43.6866 75.0432 41.6211C74.917 41.5701 74.8412 41.5191 74.7907 41.5191C74.6897 41.5191 74.5887 41.5446 74.4877 41.5446C71.3062 42.2076 68.4025 41.5701 65.7765 39.6321C65.524 39.4536 65.0442 39.4281 64.716 39.5046C62.0647 40.0911 59.4892 39.0456 58.151 36.8016C57.4945 35.7051 57.646 34.7106 58.5297 34.1496C59.3882 33.5886 60.2467 33.8436 61.0042 34.8891C61.9132 36.1641 63.1757 36.5466 64.3877 35.9346C65.5745 35.3481 66.0037 34.0731 65.4987 32.5686C65.12 31.4211 65.4735 30.5286 66.4582 30.1716C67.3672 29.8401 68.251 30.2736 68.6802 31.3191C69.4882 33.3081 69.261 35.1951 68.15 37.0056C70.3215 38.8926 74.1847 38.7906 76.7097 36.8271C79.1842 34.8891 80.2447 31.2426 79.058 28.6926C78.957 28.7436 78.8812 28.7691 78.7802 28.8201C77.2652 29.7381 76.331 29.7126 75.6997 28.7436C75.0937 27.8001 75.422 27.0096 76.9117 25.9386C78.0985 25.0716 78.6287 23.8986 78.4015 22.4196C78.149 20.9151 77.2905 19.9461 75.826 19.4871C74.6392 19.1046 73.604 19.4871 72.594 20.0991C71.7102 20.6346 70.7255 20.3541 70.2457 19.5381C69.766 18.7476 69.9427 17.8041 70.776 17.2176C71.4325 16.7841 72.1395 16.4526 72.796 16.0701ZM60.1457 75.6636C60.2972 77.4231 60.474 79.1061 60.5245 80.7891C60.5497 81.7071 60.8527 81.9621 61.7617 81.9621C72.897 81.9366 84.0322 81.9366 95.1675 81.9366C97.2632 81.9366 97.8692 81.1716 97.4652 79.1061C95.42 68.5491 93.4 57.9666 91.3547 47.4096C90.9507 45.3186 90.5215 43.2021 90.1427 41.1621C89.158 41.1621 88.3247 41.1621 87.4662 41.1621C87.4915 41.3406 87.4915 41.4426 87.4915 41.5446C89.2085 52.0761 90.9507 62.5821 92.693 73.1136C92.9202 74.5161 92.7435 75.7401 91.6577 76.7091C90.5215 77.7546 89.2085 77.7546 87.8197 77.2956C82.7697 75.6636 77.5935 74.7966 72.291 74.6691C68.251 74.5926 64.2362 74.8731 60.1457 75.6636ZM40.9305 75.5361C38.254 75.2556 35.729 74.8986 33.1787 74.7456C26.2855 74.3631 19.5437 75.3066 12.9535 77.372C10.176 78.239 7.87824 76.2756 8.33274 73.4196C9.59524 65.6166 10.9082 57.8136 12.196 50.0106C12.6757 47.0781 13.1555 44.1201 13.6605 41.1111C12.701 41.1111 11.8425 41.1111 10.9587 41.1111C10.8577 41.5446 10.782 41.9271 10.7062 42.3351C8.78724 52.2036 6.89349 62.0721 4.97449 71.9406C4.49474 74.4141 4.01499 76.8876 3.53524 79.3611C3.20699 81.0441 3.88874 81.8601 5.58049 81.9111C5.70674 81.9111 5.85824 81.9111 5.98449 81.9111C17.044 81.9111 28.1287 81.9111 39.1882 81.9111C39.4155 81.9111 39.6932 81.9876 39.87 81.8856C40.0972 81.7836 40.4255 81.5795 40.4255 81.3755C40.6275 79.514 40.7537 77.6526 40.9305 75.5361ZM44.314 76.3521C44.1372 78.4176 44.011 80.3046 43.809 82.1661C43.6575 83.8236 43.6575 83.9511 45.2482 84.5121C48.6317 85.6851 52.0405 85.6851 55.4492 84.6396C57.343 84.0531 57.3935 83.9001 57.1915 81.9366C57.141 81.5796 57.141 81.1971 57.1157 80.8401C56.9895 79.4121 56.8632 77.9841 56.7117 76.3521C55.02 76.9386 53.4797 77.4231 51.9647 78.0351C50.98 78.4431 50.0962 78.4686 49.0862 78.0606C47.5965 77.3976 46.0057 76.9386 44.314 76.3521Z" fill="#0093DC"/>
</svg>
